<svg width="103" height="14" viewBox="0 0 103 14" fill="none" xmlns="http://www.w3.org/2000/svg">
    <g clip-path="url(#clip0_1118_2215)">
        <path d="M22.8425 14.0003C22.0003 13.7248 21.1259 13.5155 20.3212 13.1518C19.715 12.8763 19.2 12.4025 18.6099 11.9948C19.0927 11.5155 19.495 11.1188 19.9349 10.678C21.1956 11.8516 22.6923 12.3584 24.4036 12.0444C25.6536 11.813 26.6782 11.1629 27.4453 10.1215C29.0064 8.01684 28.7704 5.20142 26.9035 3.33365C25.3531 1.78544 22.3865 1.14081 19.9564 3.36671C19.5701 2.94246 19.1839 2.51271 18.7601 2.0499C19.8437 0.925936 21.2385 0.259269 22.8532 0.132548C26.8445 -0.175992 30.0793 2.76616 30.2671 6.83778C30.428 10.2372 27.8155 13.4218 24.5109 13.8791C24.3392 13.9011 24.1729 13.9562 24.0066 13.9948L22.8425 14.0003Z"
              fill="white"/>
        <path d="M0 6.05005C0.32724 5.16851 0.547187 4.22636 1.00854 3.42195C3.20266 -0.385209 8.61552 -1.03535 11.5499 2.13821C11.1208 2.52388 10.6916 2.90956 10.2303 3.32278C9.13589 2.32553 7.77865 1.76906 6.16927 1.97843C4.90323 2.14372 3.84104 2.7057 3.0149 3.69744C1.29286 5.75804 1.36797 8.66713 3.18656 10.5955C4.84958 12.3641 7.9074 12.9096 10.3376 10.6837C10.7399 11.0969 11.1422 11.5101 11.5714 11.9509C10.5468 13.0087 9.32364 13.6258 7.90739 13.8848C7.71963 13.9178 7.53187 13.9674 7.34411 14.006H6.18C6.05125 13.9674 5.9225 13.9178 5.79375 13.8958C3.1651 13.444 1.38406 11.9344 0.413073 9.42195C0.230677 8.94812 0.139479 8.44124 0.00536458 7.95088C0.00536458 7.31727 0.00536458 6.68366 0.00536458 6.05005H0Z"
              fill="white"/>
        <path d="M60.3518 12.0386H58.5171V2.00557C59.1126 2.00557 59.6919 1.97802 60.2659 2.0221C60.4322 2.03312 60.6254 2.22596 60.7327 2.38574C62.1382 4.46838 63.533 6.56205 64.9331 8.6502C65.0297 8.79345 65.137 8.93119 65.3301 9.20116V2.03863H67.138V12.0717C66.564 12.0717 66.0221 12.1047 65.491 12.0496C65.314 12.0331 65.1155 11.8072 64.9975 11.6309C63.5813 9.55378 62.1811 7.46563 60.7756 5.38298C60.6683 5.2232 60.5556 5.06342 60.3571 4.78794V12.0386H60.3518Z"
              fill="white"/>
        <path d="M84.3904 7.76349C85.2702 9.20151 86.1125 10.5679 87.0298 12.0665C86.2734 12.0665 85.6297 12.0886 84.9859 12.05C84.8518 12.039 84.6962 11.8186 84.605 11.6588C84.0042 10.623 83.3873 9.59269 82.8347 8.52933C82.5718 8.01694 82.2446 7.85165 81.6384 8.02245V12.028H79.8091V1.94531C81.3058 2.01143 82.7972 1.92327 84.2295 2.17121C86.091 2.49077 86.9762 4.41914 86.268 6.20427C85.9301 7.04724 85.2166 7.43291 84.3904 7.76349ZM81.6223 6.49628C82.2607 6.46873 82.8025 6.47975 83.3336 6.40812C84.09 6.30895 84.5514 5.75248 84.5567 5.00316C84.5621 4.23732 84.1329 3.66983 83.3873 3.55964C82.9152 3.48801 82.427 3.48801 81.9442 3.50454C81.8369 3.50454 81.6438 3.69738 81.6384 3.80757C81.6116 4.66708 81.6223 5.53209 81.6223 6.49628Z"
              fill="white"/>
        <path d="M49.0161 2.03809H55.062V3.53671H50.9098V6.04911H54.7777V7.5863H50.8937V10.4403H55.1639V12.0381H49.0161V2.03809Z"
              fill="white"/>
        <path d="M45.3095 4.58957C43.1315 2.84302 41.0232 3.45459 40.1273 4.50142C39.0115 5.8072 39.0437 8.30858 40.2132 9.59784C41.4577 10.9642 43.4963 10.8981 45.4329 9.405C45.5295 9.60335 45.6207 9.79618 45.7119 9.99453C46.1357 10.9146 46.1303 10.9312 45.3041 11.4821C42.9384 13.0469 39.3334 12.1819 38.0137 9.72456C36.8442 7.54274 37.1124 3.72456 40.1595 2.35817C41.9781 1.54274 43.7806 1.6364 45.5026 2.70527C45.8621 2.92566 45.9908 3.15706 45.7655 3.56478C45.5831 3.88985 45.4597 4.24246 45.3095 4.58957Z"
              fill="white"/>
        <path d="M102.174 4.60051C100.28 3.1625 98.2414 3.12944 97.0183 4.48481C95.8702 5.75754 95.8863 8.26993 97.0504 9.57021C98.3004 10.9697 100.355 10.9146 102.292 9.41594C102.372 9.57572 102.458 9.72999 102.533 9.88977C103.021 10.9201 102.984 11.0358 101.975 11.6088C99.9473 12.7658 97.0236 12.3305 95.5323 10.6556C93.9712 8.89803 93.7995 5.91732 95.146 3.93936C96.6696 1.70244 100.366 1.12944 102.495 2.78784C102.758 2.9917 102.823 3.17903 102.667 3.48206C102.49 3.82916 102.351 4.19831 102.174 4.60602V4.60051Z"
              fill="white"/>
        <path d="M17.4619 3.33301C17.9179 3.79582 18.3095 4.19251 18.7869 4.67736C17.9662 5.4432 17.1615 6.20353 16.3192 6.99141C17.1937 7.86193 17.9662 8.63879 18.7762 9.4432C18.3256 9.85091 17.9018 10.2256 17.4619 10.6223C16.7591 9.89499 15.9866 9.1016 15.1766 8.26965C14.3236 9.16221 13.5672 9.94458 12.7893 10.76C12.3494 10.2862 11.9632 9.87295 11.5716 9.45973C12.3226 8.71042 13.0897 7.94458 13.9588 7.07956C13.0415 6.24761 12.226 5.50932 11.3999 4.76001C11.9525 4.19802 12.3602 3.7848 12.7786 3.36056C13.5457 4.13191 14.3182 4.91428 15.1497 5.75174C15.9169 4.94733 16.684 4.14843 17.4619 3.33301Z"
              fill="#FFCC30"/>
        <path d="M77.0889 3.53706H74.3959V12.0384H72.5558V3.53706H69.8682V2.04395H77.0889V3.53706Z" fill="white"/>
        <path d="M89.7227 2.0332H91.5305V12.0277H89.7227V2.0332Z" fill="white"/>
    </g>
    <defs>
        <clipPath id="clip0_1118_2215">
            <rect width="103" height="14" fill="white"/>
        </clipPath>
    </defs>
</svg>
