<svg width="75" height="27" viewBox="0 0 75 27" fill="none" xmlns="http://www.w3.org/2000/svg">
    <path d="M14.9692 19.2065C14.6639 19.2065 14.4471 19.1182 14.2189 18.9219C13.9897 18.7257 13.7486 18.4209 13.3952 17.9876L8.35181 11.7352L11.9174 8.36888C12.4638 7.85551 12.8653 7.53478 13.2669 7.34266C13.6684 7.15053 14.0699 7.08597 14.6158 7.08597H15.7402V6.57311H8.96237V7.08597H10.0541C10.5524 7.08597 10.9136 7.12625 11.1511 7.20992C11.3876 7.29462 11.4998 7.42271 11.4998 7.59882C11.4998 7.71141 11.3958 7.91181 11.2028 8.16849C11.0098 8.42466 10.7289 8.73764 10.3755 9.07386L5.23586 14.0118V0C4.91505 0.36876 4.49697 0.56915 4.03128 0.677609C3.5656 0.786067 3.05127 0.801562 2.53747 0.801562H0V1.31442H2.53747V19.2065H0V19.7193H7.4846V19.2065H5.23586V14.7173L6.36023 13.6591L10.8577 19.206H8.54481V19.7193H16.6074V19.2065H14.9692ZM25.9951 14.7979V16.8974C25.9951 17.2181 25.7296 17.8275 25.1636 18.3569C24.5975 18.8858 23.7303 19.3346 22.5257 19.3346C21.4976 19.3346 20.9113 18.9978 20.5823 18.4369C20.2527 17.8755 20.1807 17.09 20.1807 16.1924C20.1807 14.4767 20.9113 13.6028 21.9353 13.1581C22.9593 12.7134 24.2762 12.6974 25.4487 12.6974H25.9951V14.7979ZM30.5562 19.6352C31.0141 19.3346 31.3758 18.9018 31.6806 18.3724L31.3277 18.1162C31.0866 18.453 30.8537 18.7737 30.5883 19.0097C30.3234 19.2463 30.0264 19.3986 29.6569 19.3986C29.2233 19.3986 28.9822 19.1982 28.8497 18.9219C28.7173 18.6451 28.6929 18.2923 28.6929 17.9876V9.58723C28.6929 8.35287 27.9706 7.42322 26.9425 6.80139C25.9149 6.18008 24.5815 5.86762 23.3608 5.86762C21.7548 5.86762 20.5181 6.31695 19.6825 6.96976C18.8473 7.6231 18.4137 8.48096 18.4137 9.29853C18.4137 9.8434 18.542 10.2927 18.7832 10.6052C19.0243 10.9177 19.3777 11.0943 19.8273 11.0943C20.2449 11.0943 20.6138 10.9497 20.8793 10.7095C21.0143 10.5883 21.1221 10.4398 21.1955 10.274C21.2689 10.1081 21.3062 9.92865 21.3051 9.74734C21.3051 9.02583 21.0397 8.75365 20.7747 8.56462C20.5098 8.37663 20.2449 8.2723 20.2449 7.88805C20.2449 7.31063 20.7908 6.93361 21.4536 6.7012C22.1159 6.46879 22.8952 6.38099 23.3608 6.38099C23.9714 6.38099 24.6296 6.46879 25.1356 6.74562C25.6417 7.02193 25.9946 7.48675 25.9946 8.24028V12.1846H25.3845C23.7303 12.1846 21.7066 12.4087 20.0964 13.0822C18.4862 13.7551 17.2893 14.8774 17.2893 16.6732C17.2893 17.763 17.6671 18.6208 18.3578 19.206C19.0481 19.7911 20.0519 20.1041 21.3051 20.1041C22.3648 20.1041 23.2563 19.9678 24.0195 19.6512C24.7822 19.3346 25.4166 18.8372 25.963 18.1162H26.0272C26.1394 18.6771 26.4685 19.174 26.9585 19.5308C27.4485 19.8872 28.0989 20.1041 28.8539 20.1041C29.5446 20.1041 30.0988 19.9357 30.5562 19.6352ZM46.2643 19.2065V9.49065C46.2643 8.545 46.0237 7.63911 45.3526 6.96976C44.682 6.30042 43.5819 5.86762 41.8636 5.86762C40.6911 5.86762 39.7033 6.30042 38.9039 6.92586C38.105 7.55079 37.4944 8.36836 37.0774 9.13842H37.0127V5.86762C36.724 6.22037 36.4342 6.39648 36.0244 6.4848C35.6156 6.5726 35.0853 6.5726 34.3148 6.5726H31.7768V7.08597H34.3148V19.2065H31.7768V19.7193H39.4544V19.2065H37.0127V10.1641C37.3019 9.61926 37.7914 8.67308 38.5469 7.86377C39.3018 7.05395 40.3216 6.38047 41.6706 6.38047C42.1844 6.38047 42.6589 6.52508 43.0035 6.88971C43.3491 7.25434 43.5659 7.84002 43.5659 8.72163V19.206H41.0279V19.7193H48.8023V19.2065H46.2643ZM52.0264 10.7736V10.3242C52.0264 9.29853 52.1956 8.31259 52.6447 7.58333C53.0949 6.85356 53.8255 6.38099 54.9498 6.38099C56.0101 6.38099 56.6765 6.85356 57.078 7.58333C57.4795 8.31259 57.6162 9.29853 57.6162 10.3248V10.9982C57.6193 11.0562 57.6009 11.1132 57.5644 11.1583C57.5282 11.1986 57.4713 11.2224 57.3911 11.2224H52.0264V10.7736ZM60.4749 15.1661C60.2499 16.4811 59.6398 17.5868 58.7483 18.3646C57.8573 19.1419 56.6848 19.5907 55.3353 19.5907C53.8255 19.5907 52.9909 18.9498 52.5366 18.0238C52.0828 17.0983 52.0109 15.8877 52.0264 14.7494V11.7352H60.4108C60.507 11.7352 60.5795 11.7115 60.6281 11.6629C60.6757 11.6154 60.7 11.5431 60.7 11.447C60.7 10.7736 60.21 9.37858 59.246 8.15196C58.2826 6.92586 56.8452 5.86762 54.9498 5.86762C53.1989 5.86762 51.6973 6.86957 50.6335 8.26042C49.5691 9.65128 48.9425 11.4305 48.9425 12.9861C48.9425 15.1021 49.6012 16.8813 50.7292 18.1322C51.8577 19.3821 53.456 20.1041 55.3353 20.1041C56.8131 20.1041 58.0979 19.6068 59.0779 18.7412C60.0574 17.8755 60.7321 16.6412 60.9887 15.1661H60.4749Z"
          fill="#D4D4D4"/>
    <path d="M62.5558 6.57851C62.8124 6.57851 63.0535 6.51963 63.23 6.38897C63.4069 6.25778 63.5197 6.05481 63.5197 5.7661C63.5197 5.57398 63.4768 5.39734 63.4018 5.24808C63.3313 5.10365 63.2243 4.98009 63.0913 4.88965L63.112 4.86848L63.1342 4.8473C63.6584 4.92167 63.9906 5.19437 64.1914 5.5497C64.3921 5.90503 64.4615 6.34352 64.4615 6.74946C64.4615 7.58304 64.2741 8.24051 63.9394 8.81792C63.6046 9.39482 63.1234 9.89218 62.534 10.405L62.7695 10.64C63.3593 10.1375 63.8674 9.58178 64.2286 8.95117C64.607 8.3022 64.8056 7.5644 64.804 6.8135C64.804 6.20407 64.6596 5.62717 64.3409 5.20212C64.0227 4.77758 63.5301 4.50488 62.8341 4.50488C62.459 4.50488 62.1491 4.61747 61.9323 4.81218C61.7149 5.00741 61.5918 5.28527 61.5918 5.61684C61.5918 5.8947 61.688 6.13486 61.8572 6.30581C62.0254 6.47677 62.2665 6.57851 62.5558 6.57851Z"
          fill="#D4D4D4"/>
    <path d="M74.2047 6.62534C73.6821 6.15638 72.9117 5.86768 71.9161 5.86768C70.4544 5.86768 69.2576 6.55716 68.4266 7.45479C67.5956 8.35293 67.1299 9.45869 67.1299 10.2928C67.1299 11.992 68.1255 12.9784 69.121 13.8755C70.117 14.7737 71.1131 15.583 71.1131 16.9299C71.1131 17.8116 70.768 18.4768 70.2174 18.922C69.6674 19.3667 68.9125 19.5908 68.0934 19.5908C67.1465 19.5908 66.5514 19.4069 66.1944 19.1663C65.8369 18.9256 65.7163 18.6291 65.7163 18.4045C65.7163 17.9242 66.1096 17.795 66.5028 17.5869C66.8971 17.3788 67.2903 17.0901 67.2903 16.2885C67.2903 15.9998 67.1698 15.6636 66.9286 15.3986C66.688 15.1342 66.3264 14.9415 65.8446 14.9415C65.3634 14.9415 64.9531 15.1739 64.6639 15.5308C64.3751 15.8877 64.2065 16.3685 64.2065 16.8654C64.2065 17.4428 64.4393 18.2526 65.0292 18.9178C65.6201 19.5831 66.5675 20.1042 67.9966 20.1042C69.8438 20.1042 71.2016 19.5268 72.0972 18.7097C72.9924 17.8916 73.426 16.8339 73.426 15.8717C73.426 13.8038 72.3342 12.7935 71.2414 11.96C70.1491 11.1264 69.0568 10.4689 69.0568 9.10646C69.0568 8.0322 69.418 7.35046 69.9401 6.9378C70.4622 6.52463 71.1452 6.38105 71.7873 6.38105C72.3177 6.38105 72.6628 6.45335 72.876 6.57317C73.0881 6.69351 73.1683 6.86188 73.1683 7.05401C72.9437 7.19862 72.6788 7.37474 72.4698 7.62316C72.2311 7.90203 72.1028 8.25839 72.1091 8.62511C72.1091 8.96185 72.2131 9.29859 72.4341 9.55114C72.6545 9.80369 72.9919 9.97155 73.4576 9.97155C73.8751 9.97155 74.2611 9.84346 74.5421 9.59091C74.823 9.33835 75 8.96185 75 8.465C75 7.74349 74.7263 7.09429 74.2047 6.62534ZM2.46536 22.4712V26.3375H3.31705V24.8407H5.1653V24.0676H3.31705V23.2443H5.41418V22.4712H2.46536ZM13.2884 22.4712V24.6858C13.2884 24.992 13.2098 25.2245 13.0659 25.3794C12.9221 25.5349 12.713 25.6134 12.4533 25.6134C12.193 25.6134 11.9845 25.5323 11.8406 25.3722C11.6968 25.2121 11.6181 24.9729 11.6181 24.6584V22.4712H10.7654V24.6801C10.7654 25.2492 10.9248 25.6784 11.2135 25.9656C11.5033 26.2533 11.9224 26.3979 12.4419 26.3979C12.9624 26.3979 13.3867 26.2538 13.6817 25.964C13.9761 25.6743 14.1406 25.2379 14.1406 24.6522V22.4712H13.2884ZM22.109 23.7964V23.8021C22.109 23.9653 22.0495 24.1017 21.9383 24.1977C21.827 24.2938 21.664 24.349 21.456 24.349H20.5929V23.2386H21.4395C21.6469 23.2386 21.8146 23.2861 21.93 23.3781C22.0454 23.471 22.109 23.6089 22.109 23.7913V23.7964ZM22.1426 24.9564C22.3884 24.865 22.5959 24.7214 22.7418 24.5226C22.8877 24.3237 22.9721 24.0696 22.9721 23.7582V23.7468C22.9721 23.5645 22.9431 23.3977 22.8872 23.249C22.8335 23.1044 22.7494 22.973 22.6404 22.8637C22.5061 22.7319 22.3438 22.6321 22.1654 22.5719C21.9547 22.5017 21.7335 22.4676 21.5114 22.4712H19.7407V26.3375H20.5929V25.1H21.2625L22.0924 26.3375H23.0885L22.6156 25.6469L22.1426 24.9564ZM31.0735 22.4712V24.8516L29.2588 22.4712H28.4723V26.3375H29.3137V23.8791L31.1899 26.3375H31.9143V22.4712H31.0735ZM37.6143 26.3375H38.467V22.4712H37.6143V26.3375ZM43.8896 22.4712V23.2557H45.0678V26.3375H45.92V23.2557H47.0982V22.4712H43.8896ZM54.9455 22.4712V24.6858C54.9455 24.992 54.8664 25.2245 54.723 25.3794C54.5787 25.5349 54.3701 25.6134 54.1099 25.6134C53.8501 25.6134 53.6411 25.5323 53.4972 25.3722C53.3529 25.2121 53.2747 24.9729 53.2747 24.6584V22.4712H52.4225V24.6801C52.4225 25.2492 52.5814 25.6784 52.8706 25.9656C53.1604 26.2533 53.579 26.3979 54.0985 26.3979C54.619 26.3979 55.0433 26.2538 55.3382 25.964C55.6332 25.6743 55.7977 25.2379 55.7977 24.6522V22.4712H54.9455ZM63.7661 23.7964V23.8021C63.7661 23.9653 63.7066 24.1017 63.5954 24.1977C63.4836 24.2938 63.3206 24.349 63.1126 24.349H62.2501V23.2386H63.0961C63.3041 23.2386 63.4712 23.2861 63.5866 23.3781C63.702 23.471 63.7661 23.6089 63.7661 23.7913V23.7964ZM63.7987 24.9564C64.045 24.865 64.2525 24.7214 64.3989 24.5226C64.5443 24.3237 64.6292 24.0696 64.6292 23.7582V23.7468C64.6292 23.5645 64.6002 23.3977 64.5438 23.249C64.4901 23.1044 64.4059 22.973 64.297 22.8637C64.1625 22.732 64 22.6322 63.8215 22.5719C63.6111 22.5018 63.3903 22.4677 63.1685 22.4712H61.3979V26.3375H62.2501V25.1H62.9191L63.7496 26.3375H64.7451L63.7987 24.9564ZM70.976 25.5803V24.7684H72.8025V24.0123H70.976V23.2273H73.0508V22.4712H70.1294V26.3375H73.0788V25.5803H70.976Z"
          fill="#D4D4D4"/>
</svg>
