<svg width="137" height="26" viewBox="0 0 137 26" fill="none" xmlns="http://www.w3.org/2000/svg">
    <g clip-path="url(#clip0_748_2163)">
        <path d="M131.807 5.304L132.122 5.72L135.746 0.572H135.168L131.807 5.304ZM131.623 6.266L131.308 5.85L127.106 11.804H127.684L131.623 6.266ZM130.967 6.188L131.098 6.396L134.958 11.804H136.429L128.314 0.572H126.896L130.967 6.188ZM58.8045 11.908C61.3779 11.908 62.5334 10.4 62.5334 8.944C62.5334 7.176 61.1153 6.24 59.6973 5.408L59.1721 5.096C57.8591 4.316 56.8087 3.64 56.8087 2.6C56.8087 1.482 58.0167 0.858 59.1721 0.858C60.275 0.858 61.3517 1.274 61.8506 1.716V0.884C61.8506 0.884 60.8002 0.416 59.1721 0.416C57.544 0.416 55.9159 1.3 55.9159 3.016C55.9159 4.472 57.2289 5.304 58.4893 6.136C58.6469 6.24 58.8045 6.344 58.962 6.448C60.5113 7.462 61.483 8.216 61.483 9.412C61.483 10.582 60.3275 11.466 58.8045 11.466C57.0188 11.466 55.9684 10.322 55.6007 9.984V10.868C55.7058 10.972 56.9137 11.908 58.8045 11.908ZM94.833 23.192H96.6187C97.4328 23.01 97.958 22.412 97.958 21.658C97.958 20.774 97.3015 20.228 96.2511 20.228H94.5704L94.9381 20.644H96.1985C96.9601 20.644 97.459 21.06 97.459 21.632C97.459 22.282 96.9076 22.776 96.1985 22.776H94.8068L94.833 23.192ZM98.168 25.844H98.7458L96.3561 22.958H95.7784L98.168 25.844ZM108.252 25.844H108.882L105.783 22.776V23.14L108.725 20.228H108.094L105.337 22.958L108.252 25.844ZM37.7178 25.948V20.228H37.2188V24.96L37.3501 24.908L32.6496 20.124V25.844H33.1223V21.06L32.9647 21.112L37.7178 25.948ZM58.3055 21.138L56.2835 26L54.1827 20.254H54.6817L56.3098 24.778L58.2005 20.15L58.3055 21.138ZM85.0906 25.584C83.6988 25.584 82.5697 24.44 82.5697 23.036C82.5697 21.632 83.6988 20.488 85.0906 20.488C86.4824 20.488 87.6116 21.632 87.6116 23.036C87.6116 24.44 86.4824 25.584 85.0906 25.584ZM74.4028 23.92L76.8187 20.254H76.241L74.3766 23.14L74.4028 23.92ZM110.248 11.804H116.602V11.336H111.456V6.292H116.602V5.824H111.456V1.04H116.602V0.572H110.248V11.804ZM94.3341 11.804H95.542V1.04H99.1134V0.572H90.8153V1.04H94.3341V11.804ZM104.864 25.844H105.363V20.228H104.864V25.844ZM94.4917 25.844H94.9906V20.228H94.4917V25.844ZM74.0877 8.164H79.9962L79.7861 7.696H74.3241L74.0877 8.164ZM85.0906 26C86.745 26 88.0842 24.674 88.0842 23.036C88.0842 21.398 86.745 20.072 85.0906 20.072C83.4362 20.072 82.097 21.398 82.097 23.036C82.1232 24.674 83.4362 26 85.0906 26ZM74.6392 23.92L74.6654 23.14L72.7747 20.254H72.197L74.6392 23.92ZM74.2715 25.844H74.7705V23.088H74.2715V25.844ZM58.0954 21.138L58.2005 20.15L60.0912 24.778L61.7193 20.254H62.2182L60.1175 26L58.0954 21.138ZM40.7376 11.908C43.3111 11.908 44.4666 10.4 44.4666 8.944C44.4666 7.176 43.0485 6.24 41.6305 5.408L41.1053 5.096C39.7923 4.316 38.7419 3.64 38.7419 2.6C38.7419 1.482 39.9498 0.858 41.1053 0.858C42.2082 0.858 43.2849 1.274 43.7838 1.716V0.884C43.7838 0.884 42.7334 0.416 41.1053 0.416C39.4772 0.416 37.8491 1.3 37.8491 3.016C37.8491 4.472 39.1621 5.304 40.4225 6.136C40.5801 6.24 40.7376 6.344 40.8952 6.448C42.4445 7.462 43.4162 8.216 43.4162 9.412C43.4162 10.582 42.2607 11.466 40.7376 11.466C38.952 11.466 37.9016 10.322 37.5339 9.984V10.868C37.639 10.972 38.8469 11.908 40.7376 11.908ZM44.5716 25.844H48.1955V25.428H45.0705V23.166H48.1429V22.75H45.0705V20.618H48.1955V20.202H44.5716V25.844ZM17.5502 11.804H18.0754L22.0669 2.184L26.0584 11.804H27.3714L22.4345 0L17.5502 11.804ZM19.3358 8.164H25.2181L25.008 7.696H19.5459L19.3358 8.164ZM7.09872 11.804H8.70058L2.6608 5.72L2.58202 6.11L8.2279 0.572H7.51888L1.63667 6.396L7.09872 11.804ZM0.428711 11.804H1.63667V0.572H0.428711V11.804ZM72.302 11.804H72.8272L76.8187 2.184L80.8102 11.804H82.1232L77.2389 0L72.302 11.804Z"
              fill="#D4D4D4"/>
    </g>
    <defs>
        <clipPath id="clip0_748_2163">
            <rect width="136" height="26" fill="white" transform="translate(0.428711)"/>
        </clipPath>
    </defs>
</svg>
