<svg width="171" height="50" viewBox="0 0 171 50" fill="none" xmlns="http://www.w3.org/2000/svg">
<g clip-path="url(#clip0_1264_15473)">
<path fill-rule="evenodd" clip-rule="evenodd" d="M24.1471 13C31.0171 13 36.2484 18.1365 36.2484 24.8799C36.2484 31.5289 31.0486 36.76 24.3363 36.76C17.3717 36.76 12.3926 31.3084 12.3926 24.9745C12.3926 18.2309 17.6238 13 24.1471 13ZM45.4181 13.5672V33.9869H54.1158V36.1928H43.1491V13.5672H45.4181ZM69.3367 13.5671L79.8938 36.1927H77.4672L73.9062 28.7559H64.1371L60.6074 36.1927H58.0864L68.801 13.5671H69.3367ZM90.986 13.5673C93.3495 13.5673 95.1143 13.7248 96.2173 14.1345C98.5178 15.0168 99.936 17.0335 99.936 19.586C99.936 21.7288 98.9275 23.525 97.3202 24.5334C95.7829 25.4979 93.5824 25.6552 90.6637 25.667L88.0237 25.6678V36.1927H85.7548V13.5673H90.986ZM109.074 13.5672V33.9869H117.772V36.1928H106.805V13.5672H109.074ZM136.68 13.5672V15.773H126.029V22.8633H136.68V25.069H126.029V33.9869H136.68V36.1928H123.76V13.5672H136.68ZM144.464 13.5672L149.884 22.3905L155.336 13.5672H157.952L151.208 24.5333L158.393 36.1928H155.745L149.884 26.7077L143.959 36.1928H141.312L148.529 24.5333L141.817 13.5672H144.464ZM24.2732 15.2059C19.294 15.2059 14.7561 19.1764 14.7561 24.9745C14.7561 30.552 19.168 34.5541 24.2732 34.5541C29.5675 34.5541 33.8848 30.5206 33.8848 24.8485C33.8848 19.1133 29.2838 15.2059 24.2732 15.2059ZM69.0531 18.357L65.1455 26.5502H72.8978L69.0531 18.357ZM92.0259 15.773H88.0237V23.4619C89.3157 23.4934 90.6079 23.4619 91.774 23.4619C93.7276 23.4619 95.2404 23.3359 96.2488 22.5166C97.0367 21.8863 97.5724 20.7204 97.5724 19.586C97.5724 18.4201 97.0051 17.2857 96.1543 16.6239C95.1458 15.8676 93.7907 15.773 92.0259 15.773Z" fill="white"/>
</g>
<defs>
<clipPath id="clip0_1264_15473">
<rect width="146" height="24" fill="white" transform="translate(12.3926 13)"/>
</clipPath>
</defs>
</svg>
