<svg width="541" height="318" viewBox="0 0 541 318" fill="none" xmlns="http://www.w3.org/2000/svg">
    <g opacity="0.5">
        <mask id="path-1-inside-1_2016_2184" fill="white">
            <path d="M0 275C0 266.163 7.16344 259 16 259H82C90.8366 259 98 266.163 98 275V318H0V275Z"/>
        </mask>
        <path d="M0 275C0 266.163 7.16344 259 16 259H82C90.8366 259 98 266.163 98 275V318H0V275Z" fill="#262626"/>
        <path d="M-2 275C-2 265.059 6.05887 257 16 257H82C91.9411 257 100 265.059 100 275H96C96 267.268 89.732 261 82 261H16C8.26801 261 2 267.268 2 275H-2ZM98 318H0H98ZM-2 318V275C-2 265.059 6.05887 257 16 257V261C8.26801 261 2 267.268 2 275V318H-2ZM82 257C91.9411 257 100 265.059 100 275V318H96V275C96 267.268 89.732 261 82 261V257Z"
              fill="#404040" mask="url(#path-1-inside-1_2016_2184)"/>
    </g>
    <g opacity="0.5">
        <mask id="path-3-inside-2_2016_2184" fill="white">
            <path d="M110 217C110 208.163 117.163 201 126 201H193C201.837 201 209 208.163 209 217V318H110V217Z"/>
        </mask>
        <path d="M110 217C110 208.163 117.163 201 126 201H193C201.837 201 209 208.163 209 217V318H110V217Z"
              fill="#262626"/>
        <path d="M108 217C108 207.059 116.059 199 126 199H193C202.941 199 211 207.059 211 217H207C207 209.268 200.732 203 193 203H126C118.268 203 112 209.268 112 217H108ZM209 318H110H209ZM108 318V217C108 207.059 116.059 199 126 199V203C118.268 203 112 209.268 112 217V318H108ZM193 199C202.941 199 211 207.059 211 217V318H207V217C207 209.268 200.732 203 193 203V199Z"
              fill="#404040" mask="url(#path-3-inside-2_2016_2184)"/>
    </g>
    <g opacity="0.5">
        <mask id="path-5-inside-3_2016_2184" fill="white">
            <path d="M221 172C221 163.163 228.163 156 237 156H304C312.837 156 320 163.163 320 172V318H221V172Z"/>
        </mask>
        <path d="M221 172C221 163.163 228.163 156 237 156H304C312.837 156 320 163.163 320 172V318H221V172Z"
              fill="#262626"/>
        <path d="M219 172C219 162.059 227.059 154 237 154H304C313.941 154 322 162.059 322 172H318C318 164.268 311.732 158 304 158H237C229.268 158 223 164.268 223 172H219ZM320 318H221H320ZM219 318V172C219 162.059 227.059 154 237 154V158C229.268 158 223 164.268 223 172V318H219ZM304 154C313.941 154 322 162.059 322 172V318H318V172C318 164.268 311.732 158 304 158V154Z"
              fill="#404040" mask="url(#path-5-inside-3_2016_2184)"/>
    </g>
    <g opacity="0.5">
        <mask id="path-7-inside-4_2016_2184" fill="white">
            <path d="M332 99C332 90.1635 339.163 83 348 83H415C423.837 83 431 90.1634 431 99V318H332V99Z"/>
        </mask>
        <path d="M332 99C332 90.1635 339.163 83 348 83H415C423.837 83 431 90.1634 431 99V318H332V99Z" fill="#262626"/>
        <path d="M330 99C330 89.0589 338.059 81 348 81H415C424.941 81 433 89.0589 433 99H429C429 91.268 422.732 85 415 85H348C340.268 85 334 91.268 334 99H330ZM431 318H332H431ZM330 318V99C330 89.0589 338.059 81 348 81V85C340.268 85 334 91.268 334 99V318H330ZM415 81C424.941 81 433 89.0589 433 99V318H429V99C429 91.268 422.732 85 415 85V81Z"
              fill="#404040" mask="url(#path-7-inside-4_2016_2184)"/>
    </g>
    <g opacity="0.5">
        <mask id="path-9-inside-5_2016_2184" fill="white">
            <path d="M443 16C443 7.16345 450.163 0 459 0H525C533.837 0 541 7.16344 541 16V318H443V16Z"/>
        </mask>
        <path d="M443 16C443 7.16345 450.163 0 459 0H525C533.837 0 541 7.16344 541 16V318H443V16Z" fill="#262626"/>
        <path d="M441 16C441 6.05887 449.059 -2 459 -2H525C534.941 -2 543 6.05887 543 16H539C539 8.26801 532.732 2 525 2H459C451.268 2 445 8.26801 445 16H441ZM541 318H443H541ZM441 318V16C441 6.05887 449.059 -2 459 -2V2C451.268 2 445 8.26801 445 16V318H441ZM525 -2C534.941 -2 543 6.05887 543 16V318H539V16C539 8.26801 532.732 2 525 2V-2Z"
              fill="#404040" mask="url(#path-9-inside-5_2016_2184)"/>
    </g>
</svg>
