<svg width="222" height="220" viewBox="0 0 222 220" fill="none" xmlns="http://www.w3.org/2000/svg">
    <mask id="path-1-inside-1_1505_21404" fill="white">
        <path fill-rule="evenodd" clip-rule="evenodd"
              d="M202 101C202 111.171 200.497 120.991 197.7 130.249C190.708 126.272 182.619 124 174 124C147.49 124 126 145.49 126 172C126 181.096 128.53 189.602 132.925 196.85C122.891 200.191 112.157 202 101 202C45.2192 202 0 156.781 0 101C0 45.2192 45.2192 0 101 0C156.781 0 202 45.2192 202 101Z"/>
    </mask>
    <path fill-rule="evenodd" clip-rule="evenodd"
          d="M202 101C202 111.171 200.497 120.991 197.7 130.249C190.708 126.272 182.619 124 174 124C147.49 124 126 145.49 126 172C126 181.096 128.53 189.602 132.925 196.85C122.891 200.191 112.157 202 101 202C45.2192 202 0 156.781 0 101C0 45.2192 45.2192 0 101 0C156.781 0 202 45.2192 202 101Z"
          fill="#EAB308" fill-opacity="0.2"/>
    <path fill-rule="evenodd" clip-rule="evenodd"
          d="M202 101C202 111.171 200.497 120.991 197.7 130.249C190.708 126.272 182.619 124 174 124C147.49 124 126 145.49 126 172C126 181.096 128.53 189.602 132.925 196.85C122.891 200.191 112.157 202 101 202C45.2192 202 0 156.781 0 101C0 45.2192 45.2192 0 101 0C156.781 0 202 45.2192 202 101Z"
          fill="#262626"/>
    <path d="M197.7 130.249L196.711 131.988L198.89 133.227L199.614 130.828L197.7 130.249ZM132.925 196.85L133.557 198.748L135.935 197.956L134.635 195.814L132.925 196.85ZM199.614 130.828C202.467 121.384 204 111.369 204 101H200C200 110.973 198.526 120.598 195.785 129.671L199.614 130.828ZM174 126C182.264 126 190.012 128.177 196.711 131.988L198.689 128.511C191.403 124.366 182.975 122 174 122V126ZM128 172C128 146.595 148.595 126 174 126V122C146.386 122 124 144.386 124 172H128ZM134.635 195.814C130.425 188.868 128 180.72 128 172H124C124 181.472 126.636 190.335 131.215 197.887L134.635 195.814ZM101 204C112.374 204 123.322 202.156 133.557 198.748L132.294 194.953C122.46 198.226 111.939 200 101 200V204ZM-2 101C-2 157.885 44.1147 204 101 204V200C46.3238 200 2 155.676 2 101H-2ZM101 -2C44.1147 -2 -2 44.1147 -2 101H2C2 46.3238 46.3238 2 101 2V-2ZM204 101C204 44.1147 157.885 -2 101 -2V2C155.676 2 200 46.3238 200 101H204Z"
          fill="#404040" mask="url(#path-1-inside-1_1505_21404)"/>
    <circle cx="101" cy="101" r="9" fill="#404040"/>
    <line x1="101" y1="2" x2="101" y2="21" stroke="white" stroke-width="4"/>
    <line x1="101" y1="2" x2="101" y2="21" stroke="#404040" stroke-width="4"/>
    <line x1="101" y1="41" x2="101" y2="92" stroke="white" stroke-width="2"/>
    <line x1="101" y1="41" x2="101" y2="92" stroke="#404040" stroke-width="2"/>
    <line x1="141" y1="101" x2="108" y2="101" stroke="white" stroke-width="4"/>
    <line x1="141" y1="101" x2="108" y2="101" stroke="#404040" stroke-width="4"/>
    <line x1="101" y1="183" x2="101" y2="202" stroke="white" stroke-width="4"/>
    <line x1="101" y1="183" x2="101" y2="202" stroke="#404040" stroke-width="4"/>
    <line x1="183" y1="101" x2="202" y2="101" stroke="white" stroke-width="4"/>
    <line x1="183" y1="101" x2="202" y2="101" stroke="#404040" stroke-width="4"/>
    <line x1="3.49691e-07" y1="101" x2="19" y2="101" stroke="white" stroke-width="4"/>
    <line x1="3.49691e-07" y1="101" x2="19" y2="101" stroke="#404040" stroke-width="4"/>
    <path d="M216 172C216 195.196 197.196 214 174 214C150.804 214 132 195.196 132 172C132 148.804 150.804 130 174 130C197.196 130 216 148.804 216 172Z"
          fill="#EAB308"/>
    <path d="M176.022 196.88H172.143V193.142C168.102 192.877 164.883 191.716 162.485 189.658C160.088 187.581 158.879 184.91 158.86 181.644H164.864C165.015 183.381 165.733 184.815 167.017 185.948C168.3 187.081 170.009 187.77 172.143 188.016V174.62L169.622 173.969C166.45 173.176 164.015 171.854 162.315 170.004C160.635 168.135 159.795 165.831 159.795 163.094C159.795 159.865 160.89 157.241 163.08 155.221C165.27 153.182 168.291 151.983 172.143 151.624V147.688H176.022V151.624C179.704 151.926 182.659 153.116 184.887 155.192C187.133 157.25 188.304 159.846 188.398 162.98H182.479C182.423 161.376 181.8 160.007 180.61 158.874C179.421 157.722 177.892 157.024 176.022 156.778V169.438L178.656 170.032C182.187 170.92 184.811 172.279 186.529 174.11C188.247 175.923 189.106 178.292 189.106 181.219C189.106 184.655 187.964 187.411 185.68 189.488C183.395 191.565 180.176 192.773 176.022 193.113V196.88ZM183.103 181.785C183.103 180.105 182.527 178.745 181.375 177.707C180.242 176.65 178.458 175.866 176.022 175.356V188.101C178.269 187.968 180.006 187.355 181.233 186.26C182.479 185.146 183.103 183.654 183.103 181.785ZM165.855 162.669C165.855 164.198 166.394 165.463 167.47 166.464C168.546 167.465 170.104 168.182 172.143 168.616V156.778C170.33 156.873 168.829 157.477 167.64 158.591C166.45 159.686 165.855 161.045 165.855 162.669Z"
          fill="#171717"/>
</svg>
