<svg width="327" height="206" viewBox="0 0 327 206" fill="none" xmlns="http://www.w3.org/2000/svg">
    <g clip-path="url(#clip0_1505_21375)">
        <path d="M164.796 144.991L164.435 143.126H72.5449L72.184 144.991C87.7889 151.268 97.7733 162.076 97.7733 174.079C97.7733 183.633 91.4634 192.419 80.9834 198.793C79.6112 199.628 79.3034 201.231 79.5898 202.474C79.8768 203.718 80.8722 205.031 82.5382 205.031H154.441C156.108 205.031 157.103 203.718 157.39 202.474C157.676 201.231 157.369 199.628 155.996 198.793C145.516 192.419 139.206 183.633 139.206 174.079C139.206 162.076 149.191 151.268 164.796 144.991Z"
              fill="#262626" stroke="#404040" stroke-width="1.93452"/>
        <rect x="1.03274" y="2.03274" width="234.935" height="142.935" rx="8.70536" fill="#262626" stroke="#404040"
              stroke-width="1.93452"/>
        <g clip-path="url(#clip1_1505_21375)">
            <path d="M1.27539 67.3296C-0.287109 67.3296 -1.62988 66.9023 -2.75293 66.0479C-3.86784 65.1852 -4.5555 64.054 -4.81592 62.6543H-2.06934C-1.85775 63.3786 -1.44678 63.9604 -0.836426 64.3999C-0.217936 64.8394 0.49821 65.0591 1.31201 65.0591C2.68734 65.0591 3.75749 64.4487 4.52246 63.228C5.28743 62.0073 5.66992 60.2902 5.66992 58.0767H5.64551H5.6333H5.62109C5.26302 58.9474 4.6486 59.6473 3.77783 60.1763C2.90706 60.6971 1.91016 60.9575 0.787109 60.9575C-0.889323 60.9575 -2.28499 60.4041 -3.3999 59.2974C-4.50667 58.1906 -5.06006 56.8031 -5.06006 55.1348C-5.06006 53.3688 -4.45378 51.9121 -3.24121 50.7646C-2.02865 49.6172 -0.49056 49.0435 1.37305 49.0435C2.67513 49.0435 3.83073 49.3649 4.83984 50.0078C5.8571 50.6426 6.65055 51.554 7.22021 52.7422C7.9445 54.1501 8.30664 55.8835 8.30664 57.9424C8.30664 60.8883 7.68408 63.1914 6.43896 64.8516C5.20199 66.5036 3.48079 67.3296 1.27539 67.3296ZM1.37305 58.7236C2.4554 58.7236 3.35465 58.3818 4.0708 57.6982C4.78695 57.0065 5.14502 56.1398 5.14502 55.0981C5.14502 54.0565 4.78288 53.1776 4.05859 52.4614C3.34245 51.7371 2.45947 51.375 1.40967 51.375C0.359863 51.375 -0.527181 51.7331 -1.25146 52.4492C-1.97575 53.1572 -2.33789 54.0239 -2.33789 55.0493C-2.33789 56.1073 -1.98796 56.9862 -1.28809 57.686C-0.580078 58.3778 0.306966 58.7236 1.37305 58.7236ZM11.2607 67L19.0854 51.7534V51.6924H9.7959V49.3853H21.7832V51.7534L14.1294 67H11.2607ZM30.0107 50.3374C30.7025 51.1431 31.0483 52.2214 31.0483 53.5723C31.0483 54.9232 30.7025 56.0015 30.0107 56.8071C29.319 57.6128 28.3953 58.0156 27.2397 58.0156C26.076 58.0156 25.1483 57.6128 24.4565 56.8071C23.7648 56.0015 23.4189 54.9232 23.4189 53.5723C23.4189 52.2214 23.7648 51.1431 24.4565 50.3374C25.1483 49.5317 26.076 49.1289 27.2397 49.1289C28.3953 49.1289 29.319 49.5317 30.0107 50.3374ZM27.2397 56.2944C27.7199 56.2944 28.1024 56.0503 28.3872 55.562C28.672 55.0737 28.8145 54.4064 28.8145 53.5601C28.8145 52.7218 28.672 52.0586 28.3872 51.5703C28.1024 51.082 27.7199 50.8379 27.2397 50.8379C26.7515 50.8379 26.3649 51.082 26.0801 51.5703C25.7952 52.0586 25.6528 52.7218 25.6528 53.5601C25.6528 54.4064 25.7952 55.0737 26.0801 55.562C26.3649 56.0503 26.7515 56.2944 27.2397 56.2944ZM27.1299 67H24.7129L31.5244 57.686L37.5913 49.3853H39.9961L33.3677 58.4673L27.1299 67ZM41.29 62.7642C41.29 64.1151 40.9442 65.1934 40.2524 65.999C39.5688 66.8047 38.6452 67.2075 37.4814 67.2075C36.3177 67.2075 35.39 66.8047 34.6982 65.999C34.0146 65.1934 33.6729 64.1151 33.6729 62.7642C33.6729 61.4051 34.0146 60.3228 34.6982 59.5171C35.39 58.7114 36.3177 58.3086 37.4814 58.3086C38.6452 58.3086 39.5688 58.7114 40.2524 59.5171C40.9442 60.3228 41.29 61.4051 41.29 62.7642ZM36.3218 64.7539C36.6066 65.234 36.9932 65.4741 37.4814 65.4741C37.9697 65.4741 38.3522 65.234 38.6289 64.7539C38.9137 64.2656 39.0562 63.5983 39.0562 62.752C39.0562 61.9056 38.9137 61.2424 38.6289 60.7622C38.3522 60.2739 37.9697 60.0298 37.4814 60.0298C36.9932 60.0298 36.6066 60.2739 36.3218 60.7622C36.0451 61.2424 35.9067 61.9056 35.9067 62.752C35.9067 63.5983 36.0451 64.2656 36.3218 64.7539Z"
                  fill="#737373"/>
            <circle cx="18" cy="60" r="44" stroke="#404040" stroke-width="2"/>
            <path d="M35.076 19.4487C45.1325 23.6834 53.2567 31.5039 57.8715 41.3918C62.4862 51.2797 63.2622 62.5296 60.0488 72.9575C56.8354 83.3853 49.862 92.2472 40.4821 97.8227C31.1023 103.398 19.9854 105.289 9.28961 103.129C-1.4062 100.969 -10.9178 94.9117 -17.3986 86.133C-23.8795 77.3544 -26.8672 66.4807 -25.7818 55.6231C-24.6963 44.7655 -19.6152 34.6985 -11.5247 27.3765C-3.43426 20.0545 7.08824 16 18 16"
                  stroke="#78716C" stroke-width="2"/>
        </g>
        <path d="M100.275 67.3296C98.7129 67.3296 97.3701 66.9023 96.2471 66.0479C95.1322 65.1852 94.4445 64.054 94.1841 62.6543H96.9307C97.1423 63.3786 97.5532 63.9604 98.1636 64.3999C98.7821 64.8394 99.4982 65.0591 100.312 65.0591C101.687 65.0591 102.757 64.4487 103.522 63.228C104.287 62.0073 104.67 60.2902 104.67 58.0767H104.646H104.633H104.621C104.263 58.9474 103.649 59.6473 102.778 60.1763C101.907 60.6971 100.91 60.9575 99.7871 60.9575C98.1107 60.9575 96.715 60.4041 95.6001 59.2974C94.4933 58.1906 93.9399 56.8031 93.9399 55.1348C93.9399 53.3688 94.5462 51.9121 95.7588 50.7646C96.9714 49.6172 98.5094 49.0435 100.373 49.0435C101.675 49.0435 102.831 49.3649 103.84 50.0078C104.857 50.6426 105.651 51.554 106.22 52.7422C106.944 54.1501 107.307 55.8835 107.307 57.9424C107.307 60.8883 106.684 63.1914 105.439 64.8516C104.202 66.5036 102.481 67.3296 100.275 67.3296ZM100.373 58.7236C101.455 58.7236 102.355 58.3818 103.071 57.6982C103.787 57.0065 104.145 56.1398 104.145 55.0981C104.145 54.0565 103.783 53.1776 103.059 52.4614C102.342 51.7371 101.459 51.375 100.41 51.375C99.3599 51.375 98.4728 51.7331 97.7485 52.4492C97.0243 53.1572 96.6621 54.0239 96.6621 55.0493C96.6621 56.1073 97.012 56.9862 97.7119 57.686C98.4199 58.3778 99.307 58.7236 100.373 58.7236ZM115.656 67.3296C114.094 67.3296 112.751 66.9023 111.628 66.0479C110.513 65.1852 109.825 64.054 109.565 62.6543H112.312C112.523 63.3786 112.934 63.9604 113.544 64.3999C114.163 64.8394 114.879 65.0591 115.693 65.0591C117.068 65.0591 118.138 64.4487 118.903 63.228C119.668 62.0073 120.051 60.2902 120.051 58.0767H120.026H120.014H120.002C119.644 58.9474 119.029 59.6473 118.159 60.1763C117.288 60.6971 116.291 60.9575 115.168 60.9575C113.492 60.9575 112.096 60.4041 110.981 59.2974C109.874 58.1906 109.321 56.8031 109.321 55.1348C109.321 53.3688 109.927 51.9121 111.14 50.7646C112.352 49.6172 113.89 49.0435 115.754 49.0435C117.056 49.0435 118.212 49.3649 119.221 50.0078C120.238 50.6426 121.031 51.554 121.601 52.7422C122.325 54.1501 122.688 55.8835 122.688 57.9424C122.688 60.8883 122.065 63.1914 120.82 64.8516C119.583 66.5036 117.862 67.3296 115.656 67.3296ZM115.754 58.7236C116.836 58.7236 117.736 58.3818 118.452 57.6982C119.168 57.0065 119.526 56.1398 119.526 55.0981C119.526 54.0565 119.164 53.1776 118.439 52.4614C117.723 51.7371 116.84 51.375 115.791 51.375C114.741 51.375 113.854 51.7331 113.129 52.4492C112.405 53.1572 112.043 54.0239 112.043 55.0493C112.043 56.1073 112.393 56.9862 113.093 57.686C113.801 58.3778 114.688 58.7236 115.754 58.7236ZM130.939 50.3374C131.631 51.1431 131.977 52.2214 131.977 53.5723C131.977 54.9232 131.631 56.0015 130.939 56.8071C130.248 57.6128 129.324 58.0156 128.168 58.0156C127.005 58.0156 126.077 57.6128 125.385 56.8071C124.694 56.0015 124.348 54.9232 124.348 53.5723C124.348 52.2214 124.694 51.1431 125.385 50.3374C126.077 49.5317 127.005 49.1289 128.168 49.1289C129.324 49.1289 130.248 49.5317 130.939 50.3374ZM128.168 56.2944C128.649 56.2944 129.031 56.0503 129.316 55.562C129.601 55.0737 129.743 54.4064 129.743 53.5601C129.743 52.7218 129.601 52.0586 129.316 51.5703C129.031 51.082 128.649 50.8379 128.168 50.8379C127.68 50.8379 127.294 51.082 127.009 51.5703C126.724 52.0586 126.582 52.7218 126.582 53.5601C126.582 54.4064 126.724 55.0737 127.009 55.562C127.294 56.0503 127.68 56.2944 128.168 56.2944ZM128.059 67H125.642L132.453 57.686L138.52 49.3853H140.925L134.296 58.4673L128.059 67ZM142.219 62.7642C142.219 64.1151 141.873 65.1934 141.181 65.999C140.498 66.8047 139.574 67.2075 138.41 67.2075C137.246 67.2075 136.319 66.8047 135.627 65.999C134.943 65.1934 134.602 64.1151 134.602 62.7642C134.602 61.4051 134.943 60.3228 135.627 59.5171C136.319 58.7114 137.246 58.3086 138.41 58.3086C139.574 58.3086 140.498 58.7114 141.181 59.5171C141.873 60.3228 142.219 61.4051 142.219 62.7642ZM137.25 64.7539C137.535 65.234 137.922 65.4741 138.41 65.4741C138.898 65.4741 139.281 65.234 139.558 64.7539C139.842 64.2656 139.985 63.5983 139.985 62.752C139.985 61.9056 139.842 61.2424 139.558 60.7622C139.281 60.2739 138.898 60.0298 138.41 60.0298C137.922 60.0298 137.535 60.2739 137.25 60.7622C136.974 61.2424 136.835 61.9056 136.835 62.752C136.835 63.5983 136.974 64.2656 137.25 64.7539Z"
              fill="#EAB308"/>
        <circle cx="118" cy="60" r="44" stroke="#404040" stroke-width="2"/>
        <path d="M135.076 19.4487C145.133 23.6834 153.257 31.5039 157.871 41.3918C162.486 51.2797 163.262 62.5296 160.049 72.9575C156.835 83.3853 149.862 92.2472 140.482 97.8227C131.102 103.398 119.985 105.289 109.29 103.129C98.5938 100.969 89.0822 94.9117 82.6014 86.133C76.1205 77.3544 73.1328 66.4807 74.2182 55.6231C75.3037 44.7655 80.3848 34.6985 88.4753 27.3765C96.5657 20.0545 107.088 16 118 16"
              stroke="#EAB308" stroke-width="2"/>
        <path d="M86.4219 126L85.2891 122.773H80.8047L79.6719 126H78.1953L82.3516 114.727H83.7422L87.8984 126H86.4219ZM83.0234 116.438L81.2188 121.578H84.875L83.0703 116.438H83.0234ZM95.5703 120.539H94.2422C94.138 120.07 93.9062 119.685 93.5469 119.383C93.1927 119.081 92.7318 118.93 92.1641 118.93C91.4557 118.93 90.8854 119.203 90.4531 119.75C90.0208 120.292 89.8047 121.021 89.8047 121.938C89.8047 122.87 90.0208 123.604 90.4531 124.141C90.8906 124.677 91.4661 124.945 92.1797 124.945C92.7266 124.945 93.1771 124.81 93.5312 124.539C93.8906 124.263 94.1302 123.878 94.25 123.383H95.5859C95.4818 124.195 95.1146 124.859 94.4844 125.375C93.8594 125.885 93.0885 126.141 92.1719 126.141C91.0365 126.141 90.1276 125.766 89.4453 125.016C88.763 124.26 88.4219 123.234 88.4219 121.938C88.4219 120.661 88.763 119.643 89.4453 118.883C90.1276 118.117 91.0312 117.734 92.1562 117.734C93.125 117.734 93.9115 118.008 94.5156 118.555C95.125 119.102 95.4766 119.763 95.5703 120.539ZM103.586 120.539H102.258C102.154 120.07 101.922 119.685 101.562 119.383C101.208 119.081 100.747 118.93 100.18 118.93C99.4714 118.93 98.901 119.203 98.4688 119.75C98.0365 120.292 97.8203 121.021 97.8203 121.938C97.8203 122.87 98.0365 123.604 98.4688 124.141C98.9062 124.677 99.4818 124.945 100.195 124.945C100.742 124.945 101.193 124.81 101.547 124.539C101.906 124.263 102.146 123.878 102.266 123.383H103.602C103.497 124.195 103.13 124.859 102.5 125.375C101.875 125.885 101.104 126.141 100.188 126.141C99.0521 126.141 98.1432 125.766 97.4609 125.016C96.7786 124.26 96.4375 123.234 96.4375 121.938C96.4375 120.661 96.7786 119.643 97.4609 118.883C98.1432 118.117 99.0469 117.734 100.172 117.734C101.141 117.734 101.927 118.008 102.531 118.555C103.141 119.102 103.492 119.763 103.586 120.539ZM108.109 118.914C107.479 118.914 106.956 119.133 106.539 119.57C106.128 120.003 105.901 120.56 105.859 121.242H110.273C110.258 120.555 110.052 119.995 109.656 119.562C109.26 119.13 108.745 118.914 108.109 118.914ZM110.242 123.672H111.578C111.458 124.391 111.083 124.982 110.453 125.445C109.828 125.909 109.076 126.141 108.195 126.141C107.034 126.141 106.12 125.766 105.453 125.016C104.786 124.266 104.453 123.25 104.453 121.969C104.453 120.698 104.786 119.674 105.453 118.898C106.125 118.122 107.018 117.734 108.133 117.734C109.227 117.734 110.091 118.102 110.727 118.836C111.362 119.57 111.68 120.555 111.68 121.789V122.305H105.852V122.383C105.852 123.164 106.065 123.789 106.492 124.258C106.919 124.727 107.497 124.961 108.227 124.961C108.737 124.961 109.172 124.844 109.531 124.609C109.891 124.375 110.128 124.062 110.242 123.672ZM119.805 120.539H118.477C118.372 120.07 118.141 119.685 117.781 119.383C117.427 119.081 116.966 118.93 116.398 118.93C115.69 118.93 115.12 119.203 114.688 119.75C114.255 120.292 114.039 121.021 114.039 121.938C114.039 122.87 114.255 123.604 114.688 124.141C115.125 124.677 115.701 124.945 116.414 124.945C116.961 124.945 117.411 124.81 117.766 124.539C118.125 124.263 118.365 123.878 118.484 123.383H119.82C119.716 124.195 119.349 124.859 118.719 125.375C118.094 125.885 117.323 126.141 116.406 126.141C115.271 126.141 114.362 125.766 113.68 125.016C112.997 124.26 112.656 123.234 112.656 121.938C112.656 120.661 112.997 119.643 113.68 118.883C114.362 118.117 115.266 117.734 116.391 117.734C117.359 117.734 118.146 118.008 118.75 118.555C119.359 119.102 119.711 119.763 119.805 120.539ZM123.75 124.984C124.391 124.984 124.927 124.786 125.359 124.391C125.797 123.99 126.016 123.497 126.016 122.914V122.25L123.844 122.383C123.297 122.419 122.872 122.552 122.57 122.781C122.273 123.01 122.125 123.318 122.125 123.703C122.125 124.089 122.273 124.398 122.57 124.633C122.867 124.867 123.26 124.984 123.75 124.984ZM123.445 126.141C122.638 126.141 121.984 125.917 121.484 125.469C120.99 125.021 120.742 124.432 120.742 123.703C120.742 123.005 120.997 122.448 121.508 122.031C122.023 121.615 122.75 121.38 123.688 121.328L126.016 121.195V120.516C126.016 120.021 125.859 119.633 125.547 119.352C125.234 119.07 124.797 118.93 124.234 118.93C123.719 118.93 123.299 119.044 122.977 119.273C122.654 119.497 122.448 119.812 122.359 120.219H121.047C121.094 119.495 121.406 118.901 121.984 118.438C122.568 117.969 123.328 117.734 124.266 117.734C125.219 117.734 125.974 117.974 126.531 118.453C127.094 118.932 127.375 119.576 127.375 120.383V126H126.086V124.602H126.055C125.81 125.065 125.451 125.438 124.977 125.719C124.503 126 123.992 126.141 123.445 126.141ZM133.141 126.141C132.557 126.141 132.036 126.008 131.578 125.742C131.125 125.477 130.766 125.104 130.5 124.625H130.469V126H129.172V114.727H130.531V119.234H130.562C130.818 118.766 131.172 118.398 131.625 118.133C132.083 117.867 132.596 117.734 133.164 117.734C134.19 117.734 135.018 118.117 135.648 118.883C136.279 119.648 136.594 120.667 136.594 121.938C136.594 123.214 136.279 124.234 135.648 125C135.018 125.76 134.182 126.141 133.141 126.141ZM132.875 118.93C132.182 118.93 131.617 119.208 131.18 119.766C130.742 120.318 130.523 121.042 130.523 121.938C130.523 122.839 130.742 123.565 131.18 124.117C131.617 124.669 132.182 124.945 132.875 124.945C133.594 124.945 134.161 124.677 134.578 124.141C134.995 123.599 135.203 122.865 135.203 121.938C135.203 121.016 134.995 120.284 134.578 119.742C134.161 119.201 133.594 118.93 132.875 118.93ZM138.047 126V117.875H139.406V126H138.047ZM138.727 116.508C138.497 116.508 138.299 116.424 138.133 116.258C137.966 116.091 137.883 115.893 137.883 115.664C137.883 115.43 137.966 115.232 138.133 115.07C138.299 114.904 138.497 114.82 138.727 114.82C138.961 114.82 139.161 114.904 139.328 115.07C139.495 115.232 139.578 115.43 139.578 115.664C139.578 115.893 139.495 116.091 139.328 116.258C139.161 116.424 138.961 116.508 138.727 116.508ZM141.312 126V114.727H142.672V126H141.312ZM144.945 115.914H146.305V117.875H147.883V118.992H146.305V123.82C146.305 124.19 146.385 124.464 146.547 124.641C146.708 124.812 146.964 124.898 147.312 124.898C147.531 124.898 147.719 124.885 147.875 124.859V126C147.698 126.042 147.411 126.062 147.016 126.062C146.271 126.062 145.74 125.896 145.422 125.562C145.104 125.229 144.945 124.672 144.945 123.891V118.992H143.734V117.875H144.945V115.914ZM150.008 129.039C149.768 129.039 149.573 129.023 149.422 128.992V127.852C149.547 127.878 149.724 127.891 149.953 127.891C150.333 127.891 150.638 127.789 150.867 127.586C151.096 127.388 151.289 127.052 151.445 126.578L151.633 126.008L148.633 117.875H150.086L152.336 124.641H152.359L154.609 117.875H156.039L152.844 126.57C152.495 127.518 152.117 128.167 151.711 128.516C151.31 128.865 150.742 129.039 150.008 129.039Z"
              fill="#A3A3A3"/>
        <g clip-path="url(#clip2_1505_21375)">
            <path d="M200.275 67.3296C198.713 67.3296 197.37 66.9023 196.247 66.0479C195.132 65.1852 194.444 64.054 194.184 62.6543H196.931C197.142 63.3786 197.553 63.9604 198.164 64.3999C198.782 64.8394 199.498 65.0591 200.312 65.0591C201.687 65.0591 202.757 64.4487 203.522 63.228C204.287 62.0073 204.67 60.2902 204.67 58.0767H204.646H204.633H204.621C204.263 58.9474 203.649 59.6473 202.778 60.1763C201.907 60.6971 200.91 60.9575 199.787 60.9575C198.111 60.9575 196.715 60.4041 195.6 59.2974C194.493 58.1906 193.94 56.8031 193.94 55.1348C193.94 53.3688 194.546 51.9121 195.759 50.7646C196.971 49.6172 198.509 49.0435 200.373 49.0435C201.675 49.0435 202.831 49.3649 203.84 50.0078C204.857 50.6426 205.651 51.554 206.22 52.7422C206.944 54.1501 207.307 55.8835 207.307 57.9424C207.307 60.8883 206.684 63.1914 205.439 64.8516C204.202 66.5036 202.481 67.3296 200.275 67.3296ZM200.373 58.7236C201.455 58.7236 202.355 58.3818 203.071 57.6982C203.787 57.0065 204.145 56.1398 204.145 55.0981C204.145 54.0565 203.783 53.1776 203.059 52.4614C202.342 51.7371 201.459 51.375 200.41 51.375C199.36 51.375 198.473 51.7331 197.749 52.4492C197.024 53.1572 196.662 54.0239 196.662 55.0493C196.662 56.1073 197.012 56.9862 197.712 57.686C198.42 58.3778 199.307 58.7236 200.373 58.7236ZM215.656 67.3296C214.094 67.3296 212.751 66.9023 211.628 66.0479C210.513 65.1852 209.825 64.054 209.565 62.6543H212.312C212.523 63.3786 212.934 63.9604 213.544 64.3999C214.163 64.8394 214.879 65.0591 215.693 65.0591C217.068 65.0591 218.138 64.4487 218.903 63.228C219.668 62.0073 220.051 60.2902 220.051 58.0767H220.026H220.014H220.002C219.644 58.9474 219.029 59.6473 218.159 60.1763C217.288 60.6971 216.291 60.9575 215.168 60.9575C213.492 60.9575 212.096 60.4041 210.981 59.2974C209.874 58.1906 209.321 56.8031 209.321 55.1348C209.321 53.3688 209.927 51.9121 211.14 50.7646C212.352 49.6172 213.89 49.0435 215.754 49.0435C217.056 49.0435 218.212 49.3649 219.221 50.0078C220.238 50.6426 221.031 51.554 221.601 52.7422C222.325 54.1501 222.688 55.8835 222.688 57.9424C222.688 60.8883 222.065 63.1914 220.82 64.8516C219.583 66.5036 217.862 67.3296 215.656 67.3296ZM215.754 58.7236C216.836 58.7236 217.736 58.3818 218.452 57.6982C219.168 57.0065 219.526 56.1398 219.526 55.0981C219.526 54.0565 219.164 53.1776 218.439 52.4614C217.723 51.7371 216.84 51.375 215.791 51.375C214.741 51.375 213.854 51.7331 213.129 52.4492C212.405 53.1572 212.043 54.0239 212.043 55.0493C212.043 56.1073 212.393 56.9862 213.093 57.686C213.801 58.3778 214.688 58.7236 215.754 58.7236ZM230.939 50.3374C231.631 51.1431 231.977 52.2214 231.977 53.5723C231.977 54.9232 231.631 56.0015 230.939 56.8071C230.248 57.6128 229.324 58.0156 228.168 58.0156C227.005 58.0156 226.077 57.6128 225.385 56.8071C224.694 56.0015 224.348 54.9232 224.348 53.5723C224.348 52.2214 224.694 51.1431 225.385 50.3374C226.077 49.5317 227.005 49.1289 228.168 49.1289C229.324 49.1289 230.248 49.5317 230.939 50.3374ZM228.168 56.2944C228.649 56.2944 229.031 56.0503 229.316 55.562C229.601 55.0737 229.743 54.4064 229.743 53.5601C229.743 52.7218 229.601 52.0586 229.316 51.5703C229.031 51.082 228.649 50.8379 228.168 50.8379C227.68 50.8379 227.294 51.082 227.009 51.5703C226.724 52.0586 226.582 52.7218 226.582 53.5601C226.582 54.4064 226.724 55.0737 227.009 55.562C227.294 56.0503 227.68 56.2944 228.168 56.2944ZM228.059 67H225.642L232.453 57.686L238.52 49.3853H240.925L234.296 58.4673L228.059 67ZM242.219 62.7642C242.219 64.1151 241.873 65.1934 241.181 65.999C240.498 66.8047 239.574 67.2075 238.41 67.2075C237.246 67.2075 236.319 66.8047 235.627 65.999C234.943 65.1934 234.602 64.1151 234.602 62.7642C234.602 61.4051 234.943 60.3228 235.627 59.5171C236.319 58.7114 237.246 58.3086 238.41 58.3086C239.574 58.3086 240.498 58.7114 241.181 59.5171C241.873 60.3228 242.219 61.4051 242.219 62.7642ZM237.25 64.7539C237.535 65.234 237.922 65.4741 238.41 65.4741C238.898 65.4741 239.281 65.234 239.558 64.7539C239.842 64.2656 239.985 63.5983 239.985 62.752C239.985 61.9056 239.842 61.2424 239.558 60.7622C239.281 60.2739 238.898 60.0298 238.41 60.0298C237.922 60.0298 237.535 60.2739 237.25 60.7622C236.974 61.2424 236.835 61.9056 236.835 62.752C236.835 63.5983 236.974 64.2656 237.25 64.7539Z"
                  fill="#737373"/>
            <circle cx="218" cy="60" r="44" stroke="#404040" stroke-width="2"/>
            <path d="M235.076 19.4487C245.133 23.6834 253.257 31.5039 257.871 41.3918C262.486 51.2797 263.262 62.5296 260.049 72.9575C256.835 83.3853 249.862 92.2472 240.482 97.8227C231.102 103.398 219.985 105.289 209.29 103.129C198.594 100.969 189.082 94.9117 182.601 86.133C176.121 77.3544 173.133 66.4807 174.218 55.6231C175.304 44.7655 180.385 34.6985 188.475 27.3765C196.566 20.0545 207.088 16 218 16"
                  stroke="#78716C" stroke-width="2"/>
        </g>
    </g>
    <rect x="186.683" y="64.7163" width="106.399" height="140.253" rx="8.70536" fill="#262626" stroke="#404040"
          stroke-width="1.93452"/>
    <line x1="236.012" y1="72.4529" x2="251.488" y2="72.4529" stroke="white" stroke-width="1.93452"
          stroke-linecap="round"/>
    <line x1="236.012" y1="72.4529" x2="251.488" y2="72.4529" stroke="#404040" stroke-width="1.93452"
          stroke-linecap="round"/>
    <line x1="229.24" y1="72.4531" x2="232.142" y2="72.4531" stroke="white" stroke-width="1.93452"
          stroke-linecap="round"/>
    <line x1="229.24" y1="72.4531" x2="232.142" y2="72.4531" stroke="#404040" stroke-width="1.93452"
          stroke-linecap="round"/>
    <rect x="278.572" y="126.618" width="47.3958" height="78.3482" rx="8.70536" fill="#262626" stroke="#404040"
          stroke-width="1.93452"/>
    <line x1="295.016" y1="200.13" x2="310.492" y2="200.13" stroke="white" stroke-width="1.93452"
          stroke-linecap="round"/>
    <line x1="295.016" y1="200.13" x2="310.492" y2="200.13" stroke="#404040" stroke-width="1.93452"
          stroke-linecap="round"/>
    <defs>
        <clipPath id="clip0_1505_21375">
            <rect width="237" height="205" fill="white" transform="translate(0 1)"/>
        </clipPath>
        <clipPath id="clip1_1505_21375">
            <rect width="61" height="90" fill="white" transform="translate(2 15)"/>
        </clipPath>
        <clipPath id="clip2_1505_21375">
            <rect width="62" height="90" fill="white" transform="translate(173 15)"/>
        </clipPath>
    </defs>
</svg>
