<svg width="323" height="251" viewBox="0 0 323 251" fill="none" xmlns="http://www.w3.org/2000/svg">
<g clip-path="url(#clip0_748_2260)">
<path fill-rule="evenodd" clip-rule="evenodd" d="M215.992 351.135L4.20502 108.854H143.19L215.992 351.135ZM223.707 0.402216L167.799 92.2904H283.747L223.707 0.402216ZM300.494 91.6688L238.297 0H353.295L300.494 91.6688ZM152.295 92.5464L206.777 0H89.9874L152.295 92.5464ZM371.907 10.8964L316.912 92.2904H449.316L371.907 10.8964ZM81.3946 10.8964L139.204 92.2904H0L81.3946 10.8964ZM163.557 108.123H286.526L226.852 347.515L163.557 108.123ZM237.346 351.172L446.61 108.854H307.625L237.346 351.172Z" fill="#73C8F0"/>
<path d="M206.776 0L152.294 92.5464L89.9863 0H206.776Z" fill="#A0EBFF"/>
<path d="M238.296 0L300.494 91.6688L353.295 0H238.296Z" fill="#0073AA"/>
<path d="M316.912 92.2904L371.906 10.8964L449.315 92.2904H316.912Z" fill="#0073AA"/>
<path d="M446.609 108.854L237.346 351.172L307.624 108.854H446.609Z" fill="#0073AA"/>
<path d="M316.912 92.2905L371.906 10.8965L449.315 92.2905H316.912Z" fill="#73C8F0"/>
<path d="M238.296 0L300.494 91.6688L353.294 0H238.296Z" fill="#A0EBFF"/>
<path d="M4.20502 108.854L215.992 351.135L143.19 108.854H4.20502Z" fill="#A0EBFF"/>
<path d="M139.204 92.2905L81.3946 10.8965L0 92.2905H139.204Z" fill="#A0EBFF"/>
<path d="M139.203 92.2885L81.3936 10.8945L-0.000976562 92.2885H139.203Z" fill="#73C8F0"/>
</g>
<defs>
<clipPath id="clip0_748_2260">
<rect width="449.316" height="351.172" fill="white"/>
</clipPath>
</defs>
</svg>
