<svg width="34" height="34" viewBox="0 0 34 34" fill="none" xmlns="http://www.w3.org/2000/svg">
    <rect width="34" height="34" rx="7" fill="url(#paint0_radial_748_2301)"/>
    <rect width="34" height="34" rx="7" fill="url(#paint1_radial_748_2301)"/>
    <path d="M17.0005 4.63672C13.6429 4.63672 13.2215 4.6514 11.9027 4.71142C10.5866 4.77169 9.68817 4.98007 8.90207 5.28581C8.08893 5.6016 7.39916 6.02402 6.71197 6.71149C6.02426 7.3987 5.60185 8.08849 5.28504 8.9014C4.97854 9.68778 4.76991 10.5865 4.71067 11.9022C4.65168 13.2209 4.63623 13.6426 4.63623 17.0004C4.63623 20.3581 4.65117 20.7782 4.71093 22.097C4.77145 23.4132 4.97983 24.3116 5.2853 25.0978C5.60134 25.9109 6.02375 26.6007 6.7112 27.2879C7.39813 27.9757 8.0879 28.3991 8.90053 28.7149C9.68714 29.0206 10.5858 29.229 11.9017 29.2893C13.2205 29.3493 13.6416 29.364 16.999 29.364C20.3569 29.364 20.777 29.3493 22.0957 29.2893C23.4119 29.229 24.3113 29.0206 25.0979 28.7149C25.9108 28.3991 26.5996 27.9757 27.2865 27.2879C27.9742 26.6007 28.3966 25.9109 28.7134 25.098C29.0174 24.3116 29.226 23.413 29.2878 22.0973C29.347 20.7785 29.3625 20.3581 29.3625 17.0004C29.3625 13.6426 29.347 13.2212 29.2878 11.9024C29.226 10.5862 29.0174 9.68778 28.7134 8.90166C28.3966 8.08849 27.9742 7.3987 27.2865 6.71149C26.5988 6.02376 25.9111 5.60134 25.0972 5.28581C24.309 4.98007 23.4101 4.77169 22.0939 4.71142C20.7752 4.6514 20.3553 4.63672 16.9967 4.63672H17.0005ZM15.8914 6.86475C16.2206 6.86423 16.5879 6.86475 17.0005 6.86475C20.3015 6.86475 20.6928 6.8766 21.9963 6.93584C23.2017 6.99096 23.856 7.19239 24.2918 7.36161C24.8687 7.5857 25.28 7.85358 25.7125 8.28631C26.1452 8.71904 26.4131 9.13116 26.6377 9.70813C26.8069 10.1434 27.0086 10.7977 27.0634 12.0031C27.1227 13.3065 27.1356 13.698 27.1356 16.9975C27.1356 20.2971 27.1227 20.6886 27.0634 21.9919C27.0083 23.1974 26.8069 23.8516 26.6377 24.2869C26.4136 24.8639 26.1452 25.2747 25.7125 25.7072C25.2798 26.1399 24.869 26.4078 24.2918 26.6319C23.8565 26.8019 23.2017 27.0028 21.9963 27.0579C20.693 27.1172 20.3015 27.13 17.0005 27.13C13.6993 27.13 13.308 27.1172 12.0047 27.0579C10.7993 27.0023 10.1451 26.8009 9.70903 26.6316C9.13208 26.4075 8.71997 26.1397 8.28726 25.7069C7.85454 25.2742 7.58667 24.8631 7.36207 24.2859C7.19285 23.8506 6.99117 23.1963 6.93631 21.9909C6.87707 20.6875 6.86522 20.296 6.86522 16.9944C6.86522 13.6928 6.87707 13.3034 6.93631 12C6.99143 10.7946 7.19285 10.1403 7.36207 9.70452C7.58616 9.12755 7.85454 8.71543 8.28726 8.2827C8.71997 7.84998 9.13208 7.5821 9.70903 7.35749C10.1448 7.18749 10.7993 6.98658 12.0047 6.9312C13.1452 6.87969 13.5872 6.86423 15.8914 6.86166V6.86475ZM23.5999 8.91763C22.7809 8.91763 22.1163 9.5814 22.1163 10.4007C22.1163 11.2198 22.7809 11.8844 23.5999 11.8844C24.419 11.8844 25.0835 11.2198 25.0835 10.4007C25.0835 9.58166 24.419 8.91711 23.5999 8.91711V8.91763ZM17.0005 10.6511C13.4943 10.6511 10.6515 13.494 10.6515 17.0004C10.6515 20.5067 13.4943 23.3483 17.0005 23.3483C20.5068 23.3483 23.3485 20.5067 23.3485 17.0004C23.3485 13.494 20.5065 10.6511 17.0003 10.6511H17.0005ZM17.0005 12.8791C19.2764 12.8791 21.1216 14.7242 21.1216 17.0004C21.1216 19.2763 19.2764 21.1216 17.0005 21.1216C14.7244 21.1216 12.8794 19.2763 12.8794 17.0004C12.8794 14.7242 14.7244 12.8791 17.0005 12.8791Z"
          fill="white"/>
    <defs>
        <radialGradient id="paint0_radial_748_2301" cx="0" cy="0" r="1" gradientUnits="userSpaceOnUse"
                        gradientTransform="translate(9.03129 36.6187) rotate(-90) scale(33.6965 31.3404)">
            <stop stop-color="#FFDD55"/>
            <stop offset="0.1" stop-color="#FFDD55"/>
            <stop offset="0.5" stop-color="#FF543E"/>
            <stop offset="1" stop-color="#C837AB"/>
        </radialGradient>
        <radialGradient id="paint1_radial_748_2301" cx="0" cy="0" r="1" gradientUnits="userSpaceOnUse"
                        gradientTransform="translate(-5.69518 2.4493) rotate(78.6806) scale(15.0625 62.0882)">
            <stop stop-color="#3771C8"/>
            <stop offset="0.128" stop-color="#3771C8"/>
            <stop offset="1" stop-color="#6600FF" stop-opacity="0"/>
        </radialGradient>
    </defs>
</svg>
