<svg width="20" height="24" viewBox="0 0 20 24" fill="none" xmlns="http://www.w3.org/2000/svg">
<path d="M13.6322 2.80988C13.6322 2.80988 13.376 2.88736 12.9552 3.02294C12.882 2.77114 12.7722 2.4806 12.6258 2.17069C12.15 1.20222 11.4364 0.679248 10.5947 0.679248C10.5398 0.679248 10.4849 0.679248 10.4117 0.698617C10.3934 0.659878 10.3568 0.640509 10.3385 0.60177C9.97255 0.175643 9.4968 -0.0180506 8.92955 0.00131883C7.83166 0.0400576 6.73376 0.872942 5.85544 2.36439C5.2333 3.41033 4.75755 4.72745 4.62946 5.75403C3.36688 6.16079 2.48856 6.45133 2.47027 6.4707C1.82983 6.68376 1.81153 6.70313 1.73833 7.34232C1.68344 7.82656 0 21.4626 0 21.4626L13.8335 24V2.79051C13.7237 2.79051 13.6688 2.80988 13.6322 2.80988ZM10.43 3.85583C9.69808 4.08826 8.89296 4.35943 8.10613 4.61124C8.32571 3.70087 8.76487 2.79051 9.27722 2.19006C9.4785 1.977 9.75297 1.7252 10.064 1.57024C10.3751 2.26754 10.4483 3.21664 10.43 3.85583ZM8.92955 0.795464C9.18573 0.795464 9.40531 0.853572 9.58829 0.969789C9.29552 1.12474 9.00275 1.37655 8.72827 1.66709C8.03294 2.46123 7.50229 3.70087 7.28271 4.88241C6.62397 5.09547 5.96523 5.30853 5.36139 5.50223C5.76395 3.64277 7.24611 0.834203 8.92955 0.795464ZM6.80695 11.4486C6.88015 12.6883 9.97255 12.9594 10.1555 15.8842C10.2836 18.1892 9.00275 19.7581 7.15462 19.8743C4.92223 20.0293 3.69625 18.6347 3.69625 18.6347L4.172 16.504C4.172 16.504 5.39799 17.4919 6.38609 17.4144C7.02653 17.3757 7.26441 16.814 7.24611 16.4266C7.15462 14.7995 4.62946 14.8964 4.46478 12.2234C4.31839 9.97656 5.70906 7.71034 8.78317 7.49728C9.97255 7.4198 10.5764 7.72971 10.5764 7.72971L9.88106 10.5189C9.88106 10.5189 9.09424 10.1315 8.16103 10.209C6.80695 10.3058 6.78866 11.2162 6.80695 11.4486ZM11.1619 3.6234C11.1619 3.04231 11.0887 2.20943 10.8326 1.51213C11.6743 1.68646 12.0769 2.6743 12.2598 3.27475C11.9305 3.37159 11.5645 3.48781 11.1619 3.6234Z" fill="black"/>
<path d="M14.2539 23.9613L19.9996 22.4505C19.9996 22.4505 17.5293 4.76619 17.511 4.64998C17.4927 4.53376 17.4012 4.45628 17.3097 4.45628C17.2182 4.45628 15.608 4.41755 15.608 4.41755C15.608 4.41755 14.6199 3.41034 14.2539 3.02295V23.9613Z" fill="black"/>
</svg>
