<svg width="256" height="317" viewBox="0 0 256 317" fill="none" xmlns="http://www.w3.org/2000/svg">
    <path d="M177.5 159H213.534L240 136.5" stroke="#EAB308" stroke-width="2"/>
    <path d="M178.5 181H231.5" stroke="#EAB308" stroke-width="2"/>
    <path d="M177.5 136L194.5 136" stroke="#EAB308" stroke-width="2"/>
    <path d="M115.5 99.3094C117.975 97.8803 121.025 97.8803 123.5 99.3094L169.194 125.691C171.669 127.12 173.194 129.761 173.194 132.619V185.381C173.194 188.239 171.669 190.88 169.194 192.309L123.5 218.691C121.025 220.12 117.975 220.12 115.5 218.691L69.8064 192.309C67.3312 190.88 65.8064 188.239 65.8064 185.381V132.619C65.8064 129.761 67.3312 127.12 69.8064 125.691L115.5 99.3094Z"
          fill="#EAB308"/>
    <path d="M126.217 133.791C126.217 133.791 125.602 133.978 124.592 134.305C124.417 133.697 124.153 132.995 123.802 132.246C122.66 129.905 120.947 128.642 118.927 128.642C118.796 128.642 118.664 128.642 118.488 128.688C118.444 128.595 118.356 128.548 118.312 128.454C117.434 127.424 116.292 126.956 114.931 127.003C112.296 127.097 109.661 129.11 107.553 132.714C106.06 135.242 104.918 138.425 104.611 140.906C101.581 141.889 99.4726 142.591 99.4286 142.638C97.8916 143.152 97.8477 143.199 97.672 144.744C97.5403 145.914 93.5 178.868 93.5 178.868L126.7 185V133.744C126.437 133.744 126.305 133.791 126.217 133.791ZM118.532 136.318C116.775 136.88 114.843 137.535 112.955 138.144C113.482 135.944 114.536 133.744 115.765 132.293C116.248 131.778 116.907 131.169 117.654 130.795C118.4 132.48 118.576 134.774 118.532 136.318ZM114.931 128.922C115.546 128.922 116.073 129.063 116.512 129.344C115.809 129.718 115.107 130.327 114.448 131.029C112.779 132.948 111.505 135.944 110.979 138.799C109.398 139.314 107.817 139.829 106.367 140.297C107.333 135.803 110.891 129.016 114.931 128.922ZM109.837 154.668C110.012 157.663 117.434 158.319 117.873 165.387C118.181 170.957 115.107 174.749 110.671 175.03C105.313 175.404 102.371 172.034 102.371 172.034L103.513 166.885C103.513 166.885 106.455 169.272 108.827 169.085C110.364 168.991 110.935 167.634 110.891 166.698C110.671 162.766 104.611 163 104.215 156.54C103.864 151.11 107.202 145.633 114.58 145.118C117.434 144.931 118.883 145.68 118.883 145.68L117.215 152.421C117.215 152.421 115.326 151.484 113.086 151.672C109.837 151.906 109.793 154.106 109.837 154.668ZM120.289 135.757C120.289 134.352 120.113 132.339 119.498 130.654C121.518 131.076 122.484 133.463 122.924 134.914C122.133 135.148 121.255 135.429 120.289 135.757Z"
          fill="white"/>
    <path d="M126.217 133.791C126.217 133.791 125.602 133.978 124.592 134.305C124.417 133.697 124.153 132.995 123.802 132.246C122.66 129.905 120.947 128.642 118.927 128.642C118.796 128.642 118.664 128.642 118.488 128.688C118.444 128.595 118.356 128.548 118.312 128.454C117.434 127.424 116.292 126.956 114.931 127.003C112.296 127.097 109.661 129.11 107.553 132.714C106.06 135.242 104.918 138.425 104.611 140.906C101.581 141.889 99.4726 142.591 99.4286 142.638C97.8916 143.152 97.8477 143.199 97.672 144.744C97.5403 145.914 93.5 178.868 93.5 178.868L126.7 185V133.744C126.437 133.744 126.305 133.791 126.217 133.791ZM118.532 136.318C116.775 136.88 114.843 137.535 112.955 138.144C113.482 135.944 114.536 133.744 115.765 132.293C116.248 131.778 116.907 131.169 117.654 130.795C118.4 132.48 118.576 134.774 118.532 136.318ZM114.931 128.922C115.546 128.922 116.073 129.063 116.512 129.344C115.809 129.718 115.107 130.327 114.448 131.029C112.779 132.948 111.505 135.944 110.979 138.799C109.398 139.314 107.817 139.829 106.367 140.297C107.333 135.803 110.891 129.016 114.931 128.922ZM109.837 154.668C110.012 157.663 117.434 158.319 117.873 165.387C118.181 170.957 115.107 174.749 110.671 175.03C105.313 175.404 102.371 172.034 102.371 172.034L103.513 166.885C103.513 166.885 106.455 169.272 108.827 169.085C110.364 168.991 110.935 167.634 110.891 166.698C110.671 162.766 104.611 163 104.215 156.54C103.864 151.11 107.202 145.633 114.58 145.118C117.434 144.931 118.883 145.68 118.883 145.68L117.215 152.421C117.215 152.421 115.326 151.484 113.086 151.672C109.837 151.906 109.793 154.106 109.837 154.668ZM120.289 135.757C120.289 134.352 120.113 132.339 119.498 130.654C121.518 131.076 122.484 133.463 122.924 134.914C122.133 135.148 121.255 135.429 120.289 135.757Z"
          fill="black"/>
    <path d="M127.71 184.906L141.5 181.255C141.5 181.255 135.571 138.518 135.527 138.237C135.484 137.957 135.264 137.769 135.044 137.769C134.825 137.769 130.96 137.676 130.96 137.676C130.96 137.676 128.589 135.242 127.71 134.305V184.906Z"
          fill="white"/>
    <path d="M127.71 184.906L141.5 181.255C141.5 181.255 135.571 138.518 135.527 138.237C135.484 137.957 135.264 137.769 135.044 137.769C134.825 137.769 130.96 137.676 130.96 137.676C130.96 137.676 128.589 135.242 127.71 134.305V184.906Z"
          fill="black"/>
    <circle cx="237.5" cy="180" r="10" fill="#171717" stroke="#EAB308" stroke-width="2"/>
    <circle cx="201.5" cy="136" r="10" fill="#171717" stroke="#EAB308" stroke-width="2"/>
    <circle cx="244.5" cy="131" r="10" fill="#171717" stroke="#EAB308" stroke-width="2"/>
    <path d="M60 3.17543C62.1658 1.925 64.8342 1.925 67 3.17543L112.694 29.5566C114.859 30.8071 116.194 33.1179 116.194 35.6188V88.3812C116.194 90.8821 114.859 93.1929 112.694 94.4434L67 120.825C64.8342 122.075 62.1658 122.075 60 120.825L14.3064 94.4434C12.1406 93.1929 10.8064 90.8821 10.8064 88.3812V35.6188C10.8064 33.1179 12.1406 30.8071 14.3064 29.5566L60 3.17543Z"
          fill="#EAB308" fill-opacity="0.2"/>
    <path d="M60 3.17543C62.1658 1.925 64.8342 1.925 67 3.17543L112.694 29.5566C114.859 30.8071 116.194 33.1179 116.194 35.6188V88.3812C116.194 90.8821 114.859 93.1929 112.694 94.4434L67 120.825C64.8342 122.075 62.1658 122.075 60 120.825L14.3064 94.4434C12.1406 93.1929 10.8064 90.8821 10.8064 88.3812V35.6188C10.8064 33.1179 12.1406 30.8071 14.3064 29.5566L60 3.17543Z"
          fill="#262626"/>
    <path d="M60 3.17543C62.1658 1.925 64.8342 1.925 67 3.17543L112.694 29.5566C114.859 30.8071 116.194 33.1179 116.194 35.6188V88.3812C116.194 90.8821 114.859 93.1929 112.694 94.4434L67 120.825C64.8342 122.075 62.1658 122.075 60 120.825L14.3064 94.4434C12.1406 93.1929 10.8064 90.8821 10.8064 88.3812V35.6188C10.8064 33.1179 12.1406 30.8071 14.3064 29.5566L60 3.17543Z"
          stroke="#EAB308" stroke-width="2"/>
    <path d="M33.5 58.25L33.5 65.75L39.875 68C40.625 70.25 41.375 72.5 42.5 74.75L39.5 80.75L44.75 86L50.75 83C52.625 84.125 54.875 85.25 57.5 85.625L59.75 92L67.25 92L69.5 85.625C71.75 84.875 74 84.125 75.875 83L81.875 86L87.5 80.375L84.5 74.375C85.625 72.5 86.375 70.25 87.125 68L93.5 65.75L93.5 58.25L87.125 56C86.375 53.75 85.625 51.5 84.5 49.25L87.5 43.25L82.25 38L76.25 41C74.375 39.875 72.125 38.75 69.5 38.375L67.25 32L59.75 32L57.5 38.375C55.25 39.125 53 39.875 50.75 41L44.75 38L39.5 43.25L42.5 49.25C41.375 51.125 40.25 53.375 39.875 56L33.5 58.25ZM63.5 47C71.75 47 78.5 53.75 78.5 62C78.5 70.25 71.75 77 63.5 77C55.25 77 48.5 70.25 48.5 62C48.5 53.75 55.25 47 63.5 47Z"
          fill="#EAB308"/>
    <path d="M172 3.17543C174.166 1.925 176.834 1.925 179 3.17543L224.694 29.5566C226.859 30.8071 228.194 33.1179 228.194 35.6188V88.3812C228.194 90.8821 226.859 93.1929 224.694 94.4434L179 120.825C176.834 122.075 174.166 122.075 172 120.825L126.306 94.4434C124.141 93.1929 122.806 90.8821 122.806 88.3812V35.6188C122.806 33.1179 124.141 30.8071 126.306 29.5566L172 3.17543Z"
          fill="#EAB308" fill-opacity="0.2"/>
    <path d="M172 3.17543C174.166 1.925 176.834 1.925 179 3.17543L224.694 29.5566C226.859 30.8071 228.194 33.1179 228.194 35.6188V88.3812C228.194 90.8821 226.859 93.1929 224.694 94.4434L179 120.825C176.834 122.075 174.166 122.075 172 120.825L126.306 94.4434C124.141 93.1929 122.806 90.8821 122.806 88.3812V35.6188C122.806 33.1179 124.141 30.8071 126.306 29.5566L172 3.17543Z"
          fill="#262626"/>
    <path d="M172 3.17543C174.166 1.925 176.834 1.925 179 3.17543L224.694 29.5566C226.859 30.8071 228.194 33.1179 228.194 35.6188V88.3812C228.194 90.8821 226.859 93.1929 224.694 94.4434L179 120.825C176.834 122.075 174.166 122.075 172 120.825L126.306 94.4434C124.141 93.1929 122.806 90.8821 122.806 88.3812V35.6188C122.806 33.1179 124.141 30.8071 126.306 29.5566L172 3.17543Z"
          stroke="#404040" stroke-width="2"/>
    <path d="M59 196.175C61.1658 194.925 63.8342 194.925 66 196.175L111.694 222.557C113.859 223.807 115.194 226.118 115.194 228.619V281.381C115.194 283.882 113.859 286.193 111.694 287.443L66 313.825C63.8342 315.075 61.1658 315.075 59 313.825L13.3064 287.443C11.1406 286.193 9.80642 283.882 9.80642 281.381V228.619C9.80642 226.118 11.1406 223.807 13.3064 222.557L59 196.175Z"
          fill="#EAB308" fill-opacity="0.2"/>
    <path d="M59 196.175C61.1658 194.925 63.8342 194.925 66 196.175L111.694 222.557C113.859 223.807 115.194 226.118 115.194 228.619V281.381C115.194 283.882 113.859 286.193 111.694 287.443L66 313.825C63.8342 315.075 61.1658 315.075 59 313.825L13.3064 287.443C11.1406 286.193 9.80642 283.882 9.80642 281.381V228.619C9.80642 226.118 11.1406 223.807 13.3064 222.557L59 196.175Z"
          fill="#262626"/>
    <path d="M59 196.175C61.1658 194.925 63.8342 194.925 66 196.175L111.694 222.557C113.859 223.807 115.194 226.118 115.194 228.619V281.381C115.194 283.882 113.859 286.193 111.694 287.443L66 313.825C63.8342 315.075 61.1658 315.075 59 313.825L13.3064 287.443C11.1406 286.193 9.80642 283.882 9.80642 281.381V228.619C9.80642 226.118 11.1406 223.807 13.3064 222.557L59 196.175Z"
          stroke="#404040" stroke-width="2"/>
    <path d="M45 116.5L35.5076 135.377C31.4945 143.357 37.2958 152.768 46.2285 152.768L63.5 152.768" stroke="#EAB308"
          stroke-width="2"/>
    <circle cx="34.5" cy="147" r="10" fill="#171717" stroke="#EAB308" stroke-width="2"/>
</svg>
