<svg width="48" height="48" viewBox="0 0 48 48" fill="none" xmlns="http://www.w3.org/2000/svg">
    <path d="M41.2585 14.944C40.8433 13.402 39.6275 12.1862 38.0855 11.771C35.2684 11 23.9999 11 23.9999 11C23.9999 11 12.7314 11 9.91432 11.7413C8.40197 12.1565 7.1565 13.402 6.74135 14.944C6 17.7611 6 23.6029 6 23.6029C6 23.6029 6 29.4744 6.74135 32.2619C7.1565 33.8039 8.37231 35.0197 9.91432 35.4348C12.7611 36.2058 23.9999 36.2058 23.9999 36.2058C23.9999 36.2058 35.2684 36.2058 38.0855 35.4645C39.6275 35.0493 40.8433 33.8335 41.2585 32.2915C41.9998 29.4744 41.9998 23.6326 41.9998 23.6326C41.9998 23.6326 42.0295 17.7611 41.2585 14.944Z"
          fill="#FF0000"/>
    <path d="M20.4116 28.794L29.7823 23.397L20.4116 18V28.794Z" fill="white"/>
</svg>
