<svg width="528" height="205" viewBox="0 0 528 205" fill="none" xmlns="http://www.w3.org/2000/svg">
    <rect width="96" height="96" rx="8" fill="#262626"/>
    <path d="M34.6666 58.6667C37.3333 61.3333 42.6666 64 48 64M48 64C54.6666 64 61.3333 62.6667 61.3333 56C61.3333 49.3333 54.7987 48 48 48M48 64V48M48 64V72M48 48C41.3333 48 34.6666 46.6667 34.6666 40C34.6666 33.3333 41.3333 32 48 32M48 48V32M48 32C53.3333 32 58.6666 34.6667 61.3333 37.3333M48 32V24"
          stroke="white" stroke-width="4"/>
    <rect x="432" width="96" height="96" rx="8" fill="#262626"/>
    <rect x="216" y="108" width="96" height="97" rx="8" fill="#262626"/>
    <rect x="323" y="108" width="97" height="96" rx="8" fill="#262626"/>
    <mask id="mask0_1505_22820" style="mask-type:alpha" maskUnits="userSpaceOnUse" x="353" y="132" width="38"
          height="48">
        <rect x="353.333" y="132" width="37.3333" height="48" fill="white"/>
    </mask>
    <g mask="url(#mask0_1505_22820)">
        <path d="M356 126.667L372 156M372 156L388 126.667M372 156H356M372 156H388M372 156V166.667M372 180V166.667M372 166.667H356M372 166.667H388"
              stroke="white" stroke-width="5.33333"/>
    </g>
    <rect x="432" y="108" width="96" height="97" rx="8" fill="#262626"/>
    <rect x="108" y="108" width="97" height="96" rx="8" fill="#262626"/>
    <path d="M171.667 141.333C170.333 140 166.333 137.333 159.667 137.333C149.981 137.333 145.507 143.414 144.142 150.667M171.667 170.667C170.333 172 166.333 174.667 159.667 174.667C149.981 174.667 145.507 168.586 144.142 161.333M144.142 150.667C143.815 152.4 143.667 154.2 143.667 156C143.667 157.8 143.815 159.6 144.142 161.333M144.142 150.667H135.667M144.142 150.667H162.333M144.142 161.333H135.667H162.333"
          stroke="white" stroke-width="5.33333"/>
    <rect y="108" width="96" height="97" rx="8" fill="#262626"/>
    <rect x="108" width="97" height="96" rx="8" fill="#262626"/>
    <rect x="216" width="96" height="96" rx="8" fill="#262626"/>
    <path d="M280 69.3333C280 69.3333 252 69.3333 248 69.3333C248.595 69.3333 256 66.6666 256 58.6666C256 55.8058 256 52.9025 256 48M277.647 34.6666C276.274 32.1117 273.112 26.6666 266.445 26.6666C259.779 26.6666 256 31.9999 256 39.9999C256 41.5188 256 46.0478 256 48M256 48H248M256 48H269.333"
          stroke="white" stroke-width="5.33333"/>
    <rect x="323" width="97" height="96" rx="8" fill="#262626"/>
    <path d="M472 72V58.6667M496 29.3334H472V45.3334M472 45.3334H493.333M472 45.3334V58.6667M472 58.6667H464M472 58.6667H488"
          stroke="white" stroke-width="5.33333"/>
</svg>
