<svg width="459" height="246" viewBox="0 0 459 246" fill="none" xmlns="http://www.w3.org/2000/svg">
    <rect x="53" y="55" width="85" height="64" rx="8" fill="#262626"/>
    <g clip-path="url(#clip0_1740_4507)">
        <path fill-rule="evenodd" clip-rule="evenodd"
              d="M66.5996 65.2383H148.965V68.586H66.5996V65.2383ZM66.5996 71.9337H148.965V75.2815H66.5996V71.9337ZM66.5996 78.6292H148.965V81.9769H66.5996V78.6292ZM66.5996 85.3246H148.965V88.6724H66.5996V85.3246ZM66.5996 92.0201H148.965V95.3678H66.5996V92.0201ZM66.5996 98.7155H148.965V102.063H66.5996V98.7155ZM66.5996 105.411H148.965V108.759H66.5996V105.411Z"
              fill="#BD3D44"/>
        <path fill-rule="evenodd" clip-rule="evenodd"
              d="M66.5996 68.5859H148.965V71.9337H66.5996V68.5859ZM66.5996 75.2814H148.965V78.6291H66.5996V75.2814ZM66.5996 81.9768H148.965V85.3246H66.5996V81.9768ZM66.5996 88.6723H148.965V92.02H66.5996V88.6723ZM66.5996 95.3677H148.965V98.7155H66.5996V95.3677ZM66.5996 102.063H148.965V105.411H66.5996V102.063Z"
              fill="white"/>
        <path fill-rule="evenodd" clip-rule="evenodd" d="M66.5996 65.2383H99.5456V88.6719H66.5996V65.2383Z"
              fill="#192F5D"/>
        <path fill-rule="evenodd" clip-rule="evenodd"
              d="M69.3452 66.2413L69.645 67.1675H70.6151L69.8302 67.74L70.1299 68.6665L69.3451 68.094L68.5604 68.6664L68.8602 67.7401L68.0753 67.1677H69.0454L69.3452 66.2413ZM74.8362 66.2413L75.1359 67.1675H76.1062L75.3213 67.74L75.6211 68.6665L74.8362 68.094L74.0515 68.6664L74.3512 67.7401L73.5663 67.1677H74.5365L74.8362 66.2413ZM80.3274 66.2413L80.6272 67.1675H81.5973L80.8124 67.74L81.1121 68.6665L80.3274 68.094L79.5426 68.6664L79.8423 67.7401L79.0576 67.1677H80.0277L80.3274 66.2413ZM85.8183 66.2413L86.118 67.1675H87.0881L86.3032 67.74L86.6029 68.6665L85.8183 68.094L85.0334 68.6664L85.3332 67.7401L84.5483 67.1677H85.5186L85.8183 66.2413ZM91.3095 66.2413L91.6092 67.1675H92.5793L91.7944 67.74L92.0945 68.6665L91.3096 68.094L90.5249 68.6664L90.8247 67.7401L90.0398 67.1677H91.0099L91.3095 66.2413ZM96.8006 66.2413L97.1003 67.1675H98.0705L97.2856 67.74L97.5853 68.6665L96.8006 68.094L96.0157 68.6664L96.3156 67.7401L95.5308 67.1677H96.5009L96.8006 66.2413ZM72.0908 68.5848L72.3906 69.5109H73.3607L72.5758 70.0833L72.8757 71.0096L72.0908 70.4372L71.306 71.0096L71.6057 70.0833L70.8211 69.5109H71.7912L72.0908 68.5848ZM77.5817 68.5848L77.8815 69.5109H78.8515L78.0666 70.0833L78.3663 71.0096L77.5817 70.4372L76.7969 71.0096L77.0966 70.0833L76.3117 69.5109H77.282L77.5817 68.5848ZM83.0729 68.5848L83.3726 69.5109H84.3427L83.5579 70.0833L83.8576 71.0096L83.0727 70.4372L82.2881 71.0096L82.5878 70.0833L81.8029 69.5109H82.7731L83.0729 68.5848ZM88.564 68.5848L88.8637 69.5109H89.8339L89.049 70.0833L89.3487 71.0096L88.564 70.4372L87.7791 71.0096L88.0791 70.0833L87.2943 69.5109H88.2644L88.564 68.5848ZM94.0549 68.5848L94.3546 69.5109H95.3244L94.5396 70.0833L94.8394 71.0096L94.0549 70.4372L93.27 71.0096L93.5698 70.0833L92.785 69.5109H93.7551L94.0549 68.5848ZM69.345 70.9282L69.6447 71.8543H70.6148L69.8299 72.4268L70.1297 73.3529L69.3448 72.7806L68.5602 73.3529L68.8599 72.4268L68.075 71.8543H69.0452L69.345 70.9282ZM74.8359 70.9282L75.1357 71.8543H76.106L75.3211 72.4268L75.6208 73.3529L74.8359 72.7806L74.0511 73.3529L74.3508 72.4268L73.5659 71.8543H74.5362L74.8359 70.9282ZM80.3271 70.9282L80.6268 71.8543H81.5969L80.8121 72.4268L81.1118 73.3529L80.3272 72.7806L79.5423 73.3529L79.842 72.4268L79.0573 71.8543H80.0275L80.3271 70.9282ZM85.818 70.9282L86.1177 71.8543H87.0877L86.3029 72.4268L86.6026 73.3529L85.818 72.7806L85.0331 73.3529L85.3328 72.4268L84.548 71.8543H85.5183L85.818 70.9282ZM91.3091 70.9282L91.6088 71.8543H92.579L91.7941 72.4268L92.094 73.3529L91.3091 72.7806L90.5244 73.3529L90.8241 72.4268L90.0393 71.8543H91.0095L91.3091 70.9282ZM96.8003 70.9282L97.1 71.8543H98.0701L97.2852 72.4268L97.585 73.3529L96.8003 72.7806L96.0154 73.3529L96.3153 72.4268L95.5304 71.8543H96.5005L96.8003 70.9282ZM72.0908 73.2714L72.3906 74.1977H73.3607L72.5758 74.7701L72.8757 75.6962L72.0908 75.1238L71.306 75.6962L71.6057 74.77L70.821 74.1975H71.7911L72.0908 73.2714ZM77.5817 73.2714L77.8815 74.1977H78.8515L78.0666 74.7701L78.3663 75.6962L77.5817 75.1238L76.7969 75.6962L77.0966 74.77L76.3117 74.1975H77.282L77.5817 73.2714ZM83.0729 73.2714L83.3726 74.1977H84.3427L83.5579 74.7701L83.8576 75.6962L83.0727 75.1238L82.2881 75.6962L82.5878 74.77L81.8029 74.1975H82.7731L83.0729 73.2714ZM88.564 73.2714L88.8637 74.1977H89.8339L89.049 74.7701L89.3487 75.6962L88.564 75.1238L87.7791 75.6962L88.079 74.77L87.2942 74.1975H88.264L88.564 73.2714ZM94.0549 73.2714L94.3546 74.1977H95.3244L94.5395 74.7701L94.8393 75.6962L94.0547 75.1238L93.2698 75.6962L93.5695 74.77L92.7846 74.1975H93.7548L94.0549 73.2714ZM69.345 75.6149L69.6447 76.541H70.6148L69.8299 77.1135L70.1297 78.0396L69.3448 77.4672L68.5602 78.0395L68.8599 77.1133L68.075 76.5408H69.0452L69.345 75.6149ZM74.8359 75.6149L75.1357 76.541H76.106L75.3211 77.1135L75.6208 78.0396L74.8359 77.4672L74.0511 78.0395L74.3508 77.1133L73.5659 76.5408H74.5362L74.8359 75.6149ZM80.3271 75.6149L80.6268 76.541H81.5969L80.8121 77.1135L81.1118 78.0396L80.3272 77.4672L79.5423 78.0395L79.842 77.1133L79.0573 76.5408H80.0275L80.3271 75.6149ZM85.818 75.6149L86.1177 76.541H87.0877L86.3029 77.1135L86.6026 78.0396L85.818 77.4672L85.0331 78.0395L85.3328 77.1133L84.548 76.5408H85.5183L85.818 75.6149ZM91.3091 75.6149L91.6088 76.541H92.579L91.7941 77.1135L92.094 78.0396L91.3091 77.4672L90.5244 78.0395L90.8241 77.1133L90.0393 76.5408H91.0095L91.3091 75.6149ZM96.8003 75.6149L97.1 76.541H98.0701L97.2852 77.1135L97.585 78.0396L96.8003 77.4672L96.0154 78.0395L96.3153 77.1133L95.5304 76.5408H96.5005L96.8003 75.6149ZM72.0905 77.9583L72.3902 78.8845H73.3604L72.5756 79.4569L72.8755 80.3831L72.0906 79.8107L71.3057 80.3832L71.6054 79.457L70.8207 78.8846H71.7909L72.0905 77.9583ZM77.5814 77.9583L77.8811 78.8845H78.8512L78.0663 79.4569L78.366 80.3831L77.5815 79.8107L76.7966 80.3832L77.0963 79.457L76.3115 78.8846H77.2818L77.5814 77.9583ZM83.0725 77.9583L83.3723 78.8845H84.3426L83.5577 79.4569L83.8574 80.3831L83.0725 79.8107L82.2877 80.3832L82.5874 79.457L81.8025 78.8846H82.7728L83.0725 77.9583ZM88.5637 77.9583L88.8634 78.8845H89.8335L89.0487 79.4569L89.3484 80.3831L88.5637 79.8107L87.7788 80.3832L88.0787 79.457L87.2938 78.8846H88.2639L88.5637 77.9583ZM94.0546 77.9583L94.3543 78.8845H95.3242L94.5394 79.4569L94.8391 80.3831L94.0545 79.8107L93.2696 80.3832L93.5693 79.457L92.7845 78.8846H93.7546L94.0546 77.9583ZM69.3451 80.3018L69.6448 81.2279H70.6148L69.8299 81.8004L70.1297 82.7266L69.3448 82.1542L68.5602 82.7266L68.8599 81.8004L68.075 81.2279H69.0452L69.3451 80.3018ZM74.8359 80.3018L75.1357 81.2279H76.106L75.3211 81.8004L75.6208 82.7266L74.8359 82.1542L74.0511 82.7266L74.3508 81.8004L73.5659 81.2279H74.5362L74.8359 80.3018ZM80.3271 80.3018L80.6268 81.2279H81.5969L80.8121 81.8004L81.1118 82.7266L80.3271 82.1542L79.5422 82.7266L79.8419 81.8004L79.0572 81.2279H80.0274L80.3271 80.3018ZM85.818 80.3018L86.1177 81.2279H87.0877L86.3029 81.8004L86.6026 82.7266L85.818 82.1542L85.0331 82.7266L85.3328 81.8004L84.548 81.2279H85.5183L85.818 80.3018ZM91.3091 80.3018L91.6088 81.2279H92.579L91.7941 81.8004L92.0941 82.7266L91.3092 82.1542L90.5245 82.7266L90.8242 81.8004L90.0394 81.2279H91.0095L91.3091 80.3018ZM96.8003 80.3018L97.1 81.2279H98.0701L97.2852 81.8004L97.585 82.7266L96.8003 82.1542L96.0154 82.7266L96.3153 81.8004L95.5304 81.2279H96.5005L96.8003 80.3018ZM72.0905 82.6452L72.3902 83.5714H73.3604L72.5755 84.1438L72.8754 85.07L72.0905 84.4976L71.3056 85.07L71.6054 84.1438L70.8207 83.5714H71.7908L72.0905 82.6452ZM77.5814 82.6452L77.8811 83.5714H78.8512L78.0663 84.1438L78.366 85.07L77.5814 84.4976L76.7965 85.07L77.0962 84.1438L76.3114 83.5714H77.2817L77.5814 82.6452ZM83.0725 82.6452L83.3723 83.5714H84.3426L83.5577 84.1438L83.8574 85.07L83.0725 84.4976L82.2878 85.07L82.5876 84.1438L81.8027 83.5714H82.7728L83.0725 82.6452ZM88.5638 82.6452L88.8635 83.5714H89.8336L89.0487 84.1438L89.3485 85.07L88.5638 84.4976L87.7789 85.07L88.0788 84.1438L87.2939 83.5714H88.2639L88.5638 82.6452ZM94.0547 82.6452L94.3544 83.5714H95.3242L94.5394 84.1438L94.8391 85.07L94.0545 84.4976L93.2696 85.07L93.5693 84.1438L92.7845 83.5714H93.7546L94.0547 82.6452ZM69.3449 84.9887L69.6446 85.9148H70.6147L69.8299 86.4872L70.1296 87.4134L69.3447 86.841L68.5601 87.4131L68.8598 86.487L68.075 85.9145H69.0451L69.3449 84.9887ZM74.8359 84.9887L75.1356 85.9148H76.1059L75.321 86.4872L75.6207 87.4134L74.8359 86.841L74.0512 87.4131L74.3509 86.487L73.566 85.9145H74.5363L74.8359 84.9887ZM80.3271 84.9887L80.6268 85.9148H81.5969L80.8121 86.4872L81.1118 87.4134L80.3271 86.841L79.5422 87.4131L79.8419 86.487L79.0572 85.9145H80.0274L80.3271 84.9887ZM85.818 84.9887L86.1177 85.9148H87.0877L86.3029 86.4872L86.6026 87.4134L85.818 86.841L85.0331 87.4131L85.3328 86.487L84.548 85.9145H85.5183L85.818 84.9887ZM91.3091 84.9887L91.6088 85.9148H92.5791L91.7943 86.4872L92.0942 87.4134L91.3093 86.841L90.5246 87.4131L90.8243 86.487L90.0394 85.9145H91.0096L91.3091 84.9887ZM96.8004 84.9887L97.1001 85.9148H98.0702L97.2853 86.4872L97.5851 87.4134L96.8004 86.841L96.0155 87.4131L96.3154 86.487L95.5305 85.9145H96.5006L96.8004 84.9887Z"
              fill="white"/>
    </g>
    <g filter="url(#filter0_d_1740_4507)">
        <rect x="150" y="55" width="85" height="64" rx="8" fill="#262626" shape-rendering="crispEdges"/>
        <g filter="url(#filter1_d_1740_4507)">
            <g clip-path="url(#clip1_1740_4507)">
                <path d="M163 64.75V109H222V64.75H163Z" fill="#00247D"/>
                <path d="M163 64.75L222 109L163 64.75ZM222 64.75L163 109L222 64.75Z" fill="black"/>
                <path d="M222 64.75L163 109M163 64.75L222 109L163 64.75Z" stroke="white" stroke-width="12.6114"/>
                <path d="M163 64.75L222 109L163 64.75ZM222 64.75L163 109L222 64.75Z" fill="black"/>
                <path d="M222 64.75L163 109M163 64.75L222 109L163 64.75Z" stroke="#CF142B" stroke-width="8.40761"/>
                <path d="M192.5 64.75V109V64.75ZM163 86.875H222H163Z" fill="black"/>
                <path d="M163 86.875H222M192.5 64.75V109V64.75Z" stroke="white" stroke-width="21.019"/>
                <path d="M192.5 64.75V109V64.75ZM163 86.875H222H163Z" fill="black"/>
                <path d="M163 86.875H222M192.5 64.75V109V64.75Z" stroke="#CF142B" stroke-width="12.6114"/>
            </g>
        </g>
    </g>
    <rect x="247" y="55" width="85" height="64" rx="8" fill="#262626"/>
    <g filter="url(#filter2_d_1740_4507)">
        <g clip-path="url(#clip2_1740_4507)">
            <path d="M274.163 65.2383H304.836V108.758H274.163V65.2383Z" fill="white"/>
            <path d="M258.827 65.2383H274.163V108.758H258.827V65.2383ZM304.837 65.2383H320.173V108.758H304.837L304.837 65.2383ZM278.75 86.2681L277.559 86.6768L283.101 91.5597C283.52 92.8147 282.955 93.1846 282.596 93.8428L288.612 93.0761L288.456 99.1546L289.701 99.1187L289.43 93.0907L295.452 93.8074C295.079 93.0171 294.748 92.5976 295.092 91.334L300.631 86.7075L299.662 86.3553C298.869 85.7414 300.004 83.3986 300.175 81.92C300.175 81.92 296.941 83.0366 296.73 82.4524L295.906 80.8643L292.964 84.1087C292.643 84.1861 292.506 84.0577 292.43 83.785L293.79 77.0049L291.637 78.2202C291.457 78.2975 291.277 78.2307 291.158 78.0199L289.088 73.8498L286.954 78.1806C286.793 78.3358 286.632 78.3537 286.498 78.2482L284.449 77.0942L285.679 83.8213C285.581 84.0882 285.347 84.1634 285.071 84.0189L282.259 80.8113C281.891 81.4031 281.641 82.3699 281.155 82.5865C280.669 82.7892 279.04 82.1763 277.948 81.9371C278.321 83.2882 279.487 85.5328 278.749 86.2685L278.75 86.2681Z"
                  fill="#BF0A30"/>
        </g>
    </g>
    <rect x="344" y="55" width="85" height="64" rx="8" fill="#262626"/>
    <g filter="url(#filter3_d_1740_4507)">
        <g clip-path="url(#clip3_1740_4507)">
            <path fill-rule="evenodd" clip-rule="evenodd" d="M357.6 65.2383H415.4V108.758H357.6V65.2383Z" fill="white"/>
            <path fill-rule="evenodd" clip-rule="evenodd" d="M357.6 65.2383H376.867V108.758H357.6V65.2383Z"
                  fill="#00267F"/>
            <path fill-rule="evenodd" clip-rule="evenodd" d="M396.133 65.2383H415.4V108.758H396.133V65.2383Z"
                  fill="#F31830"/>
        </g>
    </g>
    <defs>
 
        <filter id="filter1_d_1740_4507" x="4.86922" y="-88.1098" width="375.262" height="360.512"
                filterUnits="userSpaceOnUse" color-interpolation-filters="sRGB">
            <feFlood flood-opacity="0" result="BackgroundImageFix"/>
            <feColorMatrix in="SourceAlpha" type="matrix" values="0 0 0 0 0 0 0 0 0 0 0 0 0 0 0 0 0 0 127 0"
                           result="hardAlpha"/>
            <feOffset dy="5.27103"/>
            <feGaussianBlur stdDeviation="79.0654"/>
            <feComposite in2="hardAlpha" operator="out"/>
            <feColorMatrix type="matrix" values="0 0 0 0 0 0 0 0 0 0 0 0 0 0 0 0 0 0 0.25 0"/>
            <feBlend mode="normal" in2="BackgroundImageFix" result="effect1_dropShadow_1740_4507"/>
            <feBlend mode="normal" in="SourceGraphic" in2="effect1_dropShadow_1740_4507" result="shape"/>
        </filter>
        <filter id="filter2_d_1740_4507" x="217.968" y="24.0278" width="143.063" height="128.783"
                filterUnits="userSpaceOnUse" color-interpolation-filters="sRGB">
            <feFlood flood-opacity="0" result="BackgroundImageFix"/>
            <feColorMatrix in="SourceAlpha" type="matrix" values="0 0 0 0 0 0 0 0 0 0 0 0 0 0 0 0 0 0 127 0"
                           result="hardAlpha"/>
            <feOffset dy="1.42105"/>
            <feGaussianBlur stdDeviation="21.3158"/>
            <feComposite in2="hardAlpha" operator="out"/>
            <feColorMatrix type="matrix" values="0 0 0 0 0 0 0 0 0 0 0 0 0 0 0 0 0 0 0.25 0"/>
            <feBlend mode="normal" in2="BackgroundImageFix" result="effect1_dropShadow_1740_4507"/>
            <feBlend mode="normal" in="SourceGraphic" in2="effect1_dropShadow_1740_4507" result="shape"/>
        </filter>
        <filter id="filter3_d_1740_4507" x="314.968" y="24.0278" width="143.063" height="128.783"
                filterUnits="userSpaceOnUse" color-interpolation-filters="sRGB">
            <feFlood flood-opacity="0" result="BackgroundImageFix"/>
            <feColorMatrix in="SourceAlpha" type="matrix" values="0 0 0 0 0 0 0 0 0 0 0 0 0 0 0 0 0 0 127 0"
                           result="hardAlpha"/>
            <feOffset dy="1.42105"/>
            <feGaussianBlur stdDeviation="21.3158"/>
            <feComposite in2="hardAlpha" operator="out"/>
            <feColorMatrix type="matrix" values="0 0 0 0 0 0 0 0 0 0 0 0 0 0 0 0 0 0 0.25 0"/>
            <feBlend mode="normal" in2="BackgroundImageFix" result="effect1_dropShadow_1740_4507"/>
            <feBlend mode="normal" in="SourceGraphic" in2="effect1_dropShadow_1740_4507" result="shape"/>
        </filter>
        <clipPath id="clip0_1740_4507">
            <rect x="66.5996" y="65.2383" width="57.8" height="43.52" rx="4" fill="white"/>
        </clipPath>
        <clipPath id="clip1_1740_4507">
            <rect x="163" y="64.75" width="59" height="44.25" rx="5.48837" fill="white"/>
        </clipPath>
        <clipPath id="clip2_1740_4507">
            <rect x="260.6" y="65.2383" width="57.8" height="43.52" rx="4" fill="white"/>
        </clipPath>
        <clipPath id="clip3_1740_4507">
            <rect x="357.6" y="65.2383" width="57.8" height="43.52" rx="4" fill="white"/>
        </clipPath>
    </defs>
</svg>
